<svg xmlns="http://www.w3.org/2000/svg" viewBox="0 0 2880 1800"><defs><style>.cls-1,.cls-10,.cls-11,.cls-12,.cls-13,.cls-14,.cls-15,.cls-16,.cls-17,.cls-18,.cls-19,.cls-2,.cls-20,.cls-21,.cls-22,.cls-23,.cls-24,.cls-25,.cls-26,.cls-27,.cls-28,.cls-29,.cls-3,.cls-30,.cls-31,.cls-32,.cls-33,.cls-34,.cls-35,.cls-36,.cls-37,.cls-38,.cls-39,.cls-4,.cls-40,.cls-41,.cls-42,.cls-43,.cls-44,.cls-45,.cls-46,.cls-47,.cls-48,.cls-49,.cls-5,.cls-50,.cls-51,.cls-52,.cls-53,.cls-54,.cls-55,.cls-56,.cls-57,.cls-58,.cls-59,.cls-6,.cls-60,.cls-61,.cls-62,.cls-63,.cls-64,.cls-65,.cls-66,.cls-67,.cls-68,.cls-69,.cls-7,.cls-70,.cls-71,.cls-72,.cls-73,.cls-74,.cls-75,.cls-8,.cls-9{fill:none;stroke-linecap:round;stroke-linejoin:round;}.cls-1,.cls-10,.cls-11,.cls-12,.cls-13,.cls-14,.cls-15,.cls-19,.cls-2,.cls-20,.cls-21,.cls-22,.cls-23,.cls-24,.cls-3,.cls-34,.cls-35,.cls-36,.cls-37,.cls-38,.cls-39,.cls-4,.cls-40,.cls-41,.cls-42,.cls-43,.cls-44,.cls-45,.cls-46,.cls-47,.cls-48,.cls-5,.cls-6,.cls-7,.cls-8,.cls-9{stroke:#fff;}.cls-1{stroke-width:2.95px;}.cls-2{stroke-width:3.3px;}.cls-3{stroke-width:3.21px;}.cls-4{stroke-width:3.23px;}.cls-5{stroke-width:3.1px;}.cls-6{stroke-width:3.18px;}.cls-7{stroke-width:2.75px;}.cls-8{stroke-width:3.14px;}.cls-9{stroke-width:3.3px;}.cls-10{stroke-width:2.98px;}.cls-11{stroke-width:3.26px;}.cls-12{stroke-width:3.11px;}.cls-13{stroke-width:3.25px;}.cls-14{stroke-width:3.2px;}.cls-15{stroke-width:3.2px;}.cls-16,.cls-17,.cls-18{stroke:#d4145a;}.cls-16{stroke-width:3.11px;}.cls-17{stroke-width:3.13px;}.cls-18{stroke-width:3.28px;}.cls-19{stroke-width:3.25px;}.cls-20{stroke-width:3.26px;}.cls-21{stroke-width:3.19px;}.cls-22{stroke-width:2.81px;}.cls-23{stroke-width:2.81px;}.cls-24{stroke-width:2.84px;}.cls-25,.cls-26,.cls-27{stroke:#8cc63f;}.cls-25{stroke-width:3.23px;}.cls-26{stroke-width:2.74px;}.cls-27{stroke-width:3.12px;}.cls-28,.cls-29,.cls-30{stroke:#006837;}.cls-28{stroke-width:2.96px;}.cls-29{stroke-width:3.28px;}.cls-30{stroke-width:2.83px;}.cls-31,.cls-32,.cls-33{stroke:#f7931e;}.cls-31{stroke-width:3.22px;}.cls-32{stroke-width:2.92px;}.cls-33{stroke-width:2.99px;}.cls-34{stroke-width:3.12px;}.cls-35{stroke-width:2.78px;}.cls-36{stroke-width:2.88px;}.cls-37{stroke-width:2.92px;}.cls-38{stroke-width:2.9px;}.cls-39{stroke-width:3.14px;}.cls-40{stroke-width:3.1px;}.cls-41{stroke-width:2.84px;}.cls-42{stroke-width:3.25px;}.cls-43{stroke-width:3.04px;}.cls-44{stroke-width:3.24px;}.cls-45{stroke-width:2.8px;}.cls-46{stroke-width:1.82px;}.cls-47{stroke-width:2.04px;}.cls-48{stroke-width:2.06px;}.cls-49,.cls-50,.cls-51{stroke:#009245;}.cls-49{stroke-width:3.24px;}.cls-50{stroke-width:2.85px;}.cls-51{stroke-width:2.92px;}.cls-52,.cls-53,.cls-54{stroke:#fbb03b;}.cls-52{stroke-width:2.89px;}.cls-53{stroke-width:3.02px;}.cls-54{stroke-width:3.07px;}.cls-55,.cls-56,.cls-57{stroke:#93278f;}.cls-55{stroke-width:3.21px;}.cls-56{stroke-width:2.79px;}.cls-57{stroke-width:2.98px;}.cls-58,.cls-59,.cls-60{stroke:#c1272d;}.cls-58{stroke-width:3.24px;}.cls-59{stroke-width:2.97px;}.cls-60{stroke-width:2.86px;}.cls-61,.cls-62,.cls-63{stroke:#f15a24;}.cls-61{stroke-width:3.26px;}.cls-62{stroke-width:3.01px;}.cls-63{stroke-width:3.15px;}.cls-64,.cls-65,.cls-66{stroke:blue;}.cls-64{stroke-width:2.95px;}.cls-65{stroke-width:3.24px;}.cls-66{stroke-width:2.91px;}.cls-67,.cls-68,.cls-69{stroke:lime;}.cls-67{stroke-width:3.21px;}.cls-68{stroke-width:3.15px;}.cls-69{stroke-width:3px;}.cls-70,.cls-71,.cls-72{stroke:#00a99d;}.cls-70{stroke-width:2.86px;}.cls-71{stroke-width:2.76px;}.cls-72{stroke-width:2.94px;}.cls-73,.cls-74,.cls-75{stroke:#ff0;}.cls-73{stroke-width:1.97px;}.cls-74{stroke-width:2.13px;}.cls-75{stroke-width:1.9px;}</style></defs><g id="Layer_3" data-name="Layer 3"><rect x="0.5" y="0.5" width="2879" height="1799"/><path d="M2879,1V1799H1V1H2879m1-1H0V1800H2880V0Z"/><line class="cls-1" x1="114.87" y1="817.69" x2="121.63" y2="821.72"/><path class="cls-1" d="M98.61,816a8.23,8.23,0,0,0,5.4.79l3.73-.94a3,3,0,0,0,2.14-3.58l-.95-3.73a8.25,8.25,0,0,0-3.26-4.37l-13.47-8a3,3,0,0,0-4,1l-4,6.76a3,3,0,0,0,1,4Z"/><path class="cls-1" d="M113.73,790.66a8.16,8.16,0,0,0,5.4.79l3.73-.94a3,3,0,0,0,2.13-3.58l-.94-3.73a8.25,8.25,0,0,0-3.26-4.37l-13.48-8a3,3,0,0,0-4,1l-4,6.76a3,3,0,0,0,1,4Z"/><path class="cls-1" d="M158.22,810.31l-1.14-16.46a4.78,4.78,0,0,0-6.9-4.11l-13.43,6.63-6.76-4"/><circle class="cls-1" cx="132.62" cy="828.27" r="12.79" transform="matrix(0.51, -0.86, 0.86, 0.51, -646.73, 518.05)"/><path class="cls-1" d="M128.39,825.75a4.93,4.93,0,0,0,1.71,6.75"/><line class="cls-2" x1="1352.69" y1="1417.87" x2="1354.1" y2="1409.19"/><path class="cls-2" d="M1357.64,1435.44a9.18,9.18,0,0,0-1.4-5.93l-2.51-3.49a3.3,3.3,0,0,0-4.6-.74l-3.48,2.51a9.19,9.19,0,0,0-3.2,5.19l-2.8,17.29a3.31,3.31,0,0,0,2.73,3.78l8.68,1.41a3.31,3.31,0,0,0,3.78-2.73Z"/><path class="cls-2" d="M1325.1,1430.17a9.18,9.18,0,0,0-1.4-5.93l-2.51-3.49a3.29,3.29,0,0,0-4.6-.74l-3.48,2.51a9.2,9.2,0,0,0-3.2,5.18l-2.8,17.3a3.31,3.31,0,0,0,2.73,3.78l8.67,1.4a3.31,3.31,0,0,0,3.79-2.72Z"/><path class="cls-2" d="M1327.21,1375.89l-16.62,8a5.33,5.33,0,0,0-1.44,8.85l12.41,11.22-1.41,8.68"/><circle class="cls-2" cx="1356.38" cy="1395.09" r="14.29" transform="translate(-237.66 2510.93) rotate(-80.8)"/><path class="cls-2" d="M1355.5,1400.52a5.51,5.51,0,0,0,6.31-4.55"/><line class="cls-3" x1="157.33" y1="1069.87" x2="161.9" y2="1077.12"/><path class="cls-3" d="M142.37,1060.23a9,9,0,0,0,4.85,3.43l4.09.93a3.22,3.22,0,0,0,3.84-2.43l.92-4.08a9,9,0,0,0-1-5.85l-9.12-14.45a3.23,3.23,0,0,0-4.43-1l-7.25,4.58a3.22,3.22,0,0,0-1,4.43Z"/><path class="cls-3" d="M169.55,1043.07a9,9,0,0,0,4.86,3.43l4.08.93a3.22,3.22,0,0,0,3.84-2.43l.92-4.08a9,9,0,0,0-1-5.85l-9.12-14.45a3.23,3.23,0,0,0-4.43-1l-7.25,4.58a3.21,3.21,0,0,0-1,4.43Z"/><path class="cls-3" d="M203.05,1084.09l7-16.54a5.19,5.19,0,0,0-4.66-7.39l-16.31-.2-4.58-7.25"/><circle class="cls-3" cx="169.34" cy="1088.9" r="13.93" transform="translate(-555.14 258.53) rotate(-32.26)"/><path class="cls-3" d="M166.48,1084.37a5.36,5.36,0,0,0-1.67,7.39"/><path class="cls-4" d="M1345.48,924.93a10.8,10.8,0,0,0,.39-15.22l-29.66-31.19a10.81,10.81,0,0,0-15.22-.39l-35.87,34.11a10.8,10.8,0,0,0-.38,15.22l29.66,31.19a10.79,10.79,0,0,0,15.21.39Z"/><line class="cls-4" x1="1284.39" y1="932.55" x2="1274.01" y2="921.64"/><line class="cls-4" x1="1300.7" y1="949.71" x2="1290.32" y2="938.79"/><path class="cls-4" d="M1299.27,932.57c1.67,1.76,11.14,1.95,21.78-8.16,3.12-3,2.68-9.84-4.06-16.93s-13.59-7.88-16.71-4.91c-10.63,10.11-10.92,19.58-9.25,21.33,1.93,2,5.94-1.6,8,.61S1297.34,930.54,1299.27,932.57Z"/><path class="cls-4" d="M1320.06,883.76l-3.64,3.46a5,5,0,0,0-.18,7.1l13.85,14.56a5,5,0,0,0,7.1.18l3.64-3.46"/><path class="cls-4" d="M1338.45,900.43a9.68,9.68,0,1,0-13.34-14"/><path class="cls-5" d="M1761.51,758.89a10.37,10.37,0,0,0,13.45-5.72l15.45-38.34a10.37,10.37,0,0,0-5.73-13.45l-44.09-17.77a10.37,10.37,0,0,0-13.45,5.72l-15.45,38.34a10.37,10.37,0,0,0,5.73,13.45Z"/><line class="cls-5" x1="1730.52" y1="708.54" x2="1735.92" y2="695.12"/><line class="cls-5" x1="1722.02" y1="729.62" x2="1727.43" y2="716.21"/><path class="cls-5" d="M1736.43,721.55c-.87,2.16,2.73,10.51,15.8,15.78,3.84,1.54,9.67-1.57,13.18-10.29s1.47-15-2.36-16.55c-13.07-5.27-21.46-1.75-22.33.41-1,2.49,3.76,4.55,2.67,7.26S1737.43,719.06,1736.43,721.55Z"/><path class="cls-5" d="M1787.36,720.28l-4.47-1.8a4.83,4.83,0,0,0-6.28,2.67L1769.4,739a4.83,4.83,0,0,0,2.67,6.28l4.47,1.8"/><path class="cls-5" d="M1780.12,743a9.3,9.3,0,1,0,7-17.25"/><path class="cls-6" d="M576.51,594.68a10.63,10.63,0,0,0,8-12.66l-9.26-41.35a10.63,10.63,0,0,0-12.66-8l-47.56,10.65A10.62,10.62,0,0,0,507,556l9.26,41.36a10.63,10.63,0,0,0,12.66,8Z"/><line class="cls-6" x1="521.05" y1="570.2" x2="517.81" y2="555.73"/><line class="cls-6" x1="526.14" y1="592.95" x2="522.9" y2="578.47"/><path class="cls-6" d="M533.61,577.75c.52,2.33,8.42,7.28,22.52,4.12,4.14-.93,7.25-7,5.14-16.35s-7.49-13.53-11.62-12.6c-14.1,3.16-19.14,11-18.61,13.34.6,2.68,5.82,1.65,6.48,4.58S533,575.06,533.61,577.75Z"/><path class="cls-6" d="M575.87,547.05l-4.82,1.08a4.94,4.94,0,0,0-3.75,5.9l4.32,19.3a5,5,0,0,0,5.91,3.75l4.82-1.08"/><path class="cls-6" d="M583,570.43a9.54,9.54,0,1,0-4.17-18.61"/><polygon class="cls-7" points="479.49 1479.24 439.87 1452.02 422.68 1484.47 467.45 1501.96 479.49 1479.24"/><line class="cls-7" x1="462.11" y1="1484.58" x2="442.64" y2="1474.26"/><line class="cls-7" x1="448.85" y1="1477.55" x2="441.83" y2="1479.71"/><line class="cls-7" x1="448.85" y1="1477.55" x2="446.69" y2="1470.53"/><line class="cls-7" x1="455.9" y1="1481.29" x2="458.06" y2="1488.31"/><line class="cls-7" x1="455.9" y1="1481.29" x2="462.92" y2="1479.13"/><line class="cls-7" x1="454.24" y1="1475.9" x2="452.08" y2="1468.88"/><line class="cls-7" x1="454.24" y1="1475.9" x2="461.26" y2="1473.74"/><line class="cls-7" x1="450.51" y1="1482.95" x2="443.48" y2="1485.1"/><line class="cls-7" x1="450.51" y1="1482.95" x2="452.66" y2="1489.97"/><line class="cls-7" x1="457.53" y1="1469.68" x2="447.21" y2="1489.16"/><polygon class="cls-8" points="686.74 1051.9 676.79 998.05 636.78 1010.32 658.73 1060.49 686.74 1051.9"/><line class="cls-8" x1="668.44" y1="1042.19" x2="661.08" y2="1018.19"/><line class="cls-8" x1="663.43" y1="1025.85" x2="656.04" y2="1021.92"/><line class="cls-8" x1="663.43" y1="1025.85" x2="667.35" y2="1018.45"/><line class="cls-8" x1="666.09" y1="1034.53" x2="662.17" y2="1041.93"/><line class="cls-8" x1="666.09" y1="1034.53" x2="673.49" y2="1038.46"/><line class="cls-8" x1="669.1" y1="1028.86" x2="673.03" y2="1021.46"/><line class="cls-8" x1="669.1" y1="1028.86" x2="676.5" y2="1032.78"/><line class="cls-8" x1="660.42" y1="1031.52" x2="653.02" y2="1027.6"/><line class="cls-8" x1="660.42" y1="1031.52" x2="656.49" y2="1038.92"/><line class="cls-8" x1="676.76" y1="1026.51" x2="652.76" y2="1033.87"/><polygon class="cls-9" points="718.1 708.37 737.26 762.58 776.73 743.28 745.73 694.86 718.1 708.37"/><line class="cls-9" x1="738.67" y1="715.43" x2="750.24" y2="739.11"/><line class="cls-9" x1="746.55" y1="731.56" x2="754.86" y2="734.41"/><line class="cls-9" x1="746.55" y1="731.56" x2="743.69" y2="739.87"/><line class="cls-9" x1="742.36" y1="722.98" x2="745.21" y2="714.67"/><line class="cls-9" x1="742.36" y1="722.98" x2="734.05" y2="720.13"/><line class="cls-9" x1="740.17" y1="729.37" x2="737.31" y2="737.68"/><line class="cls-9" x1="740.17" y1="729.37" x2="731.86" y2="726.51"/><line class="cls-9" x1="748.74" y1="725.18" x2="757.05" y2="728.03"/><line class="cls-9" x1="748.74" y1="725.18" x2="751.59" y2="716.86"/><line class="cls-9" x1="732.61" y1="733.06" x2="756.3" y2="721.48"/><path class="cls-10" d="M647.18,1693.09c-3.14-.76-12.85-8.06-14.91-28.26-.6-5.93,5.9-10.72,18.72-12s20.16,2.07,20.76,8c2.06,20.21-6,29.31-8.91,30.69"/><circle class="cls-10" cx="653" cy="1672.55" r="7.94"/><path class="cls-10" d="M619.47,1656.64c7.88.57,12.33,3.62,12.8,8.19,2.06,20.2-6,29.31-8.91,30.68"/><path class="cls-10" d="M682.58,1650.22c-7.6,2.14-11.35,6-10.89,10.59,2.06,20.21,11.78,27.51,14.91,28.27"/><line class="cls-10" x1="621.35" y1="1675.77" x2="645.1" y2="1673.35"/><line class="cls-10" x1="660.9" y1="1671.75" x2="684.56" y2="1669.34"/><path class="cls-10" d="M584.42,1699.48c-3.13-.77-12.85-8.06-14.91-28.27-.6-5.93,5.9-10.71,18.73-12s20.15,2.08,20.76,8c2,20.21-6,29.31-8.91,30.69"/><circle class="cls-10" cx="590.25" cy="1678.94" r="7.94"/><path class="cls-10" d="M556.71,1663c7.88.56,12.34,3.62,12.8,8.18,2.06,20.21-6,29.31-8.9,30.69"/><path class="cls-10" d="M619.83,1656.61c-7.61,2.14-11.36,6-10.89,10.59,2,20.21,11.77,27.5,14.9,28.26"/><line class="cls-10" x1="558.6" y1="1682.16" x2="582.35" y2="1679.74"/><line class="cls-10" x1="598.14" y1="1678.13" x2="621.8" y2="1675.73"/><path class="cls-11" d="M931,979.22c-2.68,2.32-15.37,6.37-34.73-4.63-5.68-3.23-5.83-12.08,1.15-24.37s14.66-16.7,20.34-13.47c19.37,11,22.39,24,21.77,27.46"/><circle class="cls-11" cx="916.29" cy="960.97" r="8.7"/><path class="cls-11" d="M880.77,980.82c5.51-6.68,11.07-8.72,15.45-6.23,19.36,11,22.38,24,21.76,27.46"/><path class="cls-11" d="M915.13,920.34c-2.92,8.16-1.82,14,2.55,16.47,19.36,11,32.06,7,34.73,4.64"/><line class="cls-11" x1="899.06" y1="991.3" x2="911.99" y2="968.53"/><line class="cls-11" x1="920.59" y1="953.4" x2="933.48" y2="930.73"/><path class="cls-11" d="M896.77,1039.36c-2.67,2.31-15.36,6.36-34.72-4.64-5.68-3.23-5.83-12.08,1.15-24.37s14.66-16.69,20.34-13.47c19.37,11,22.39,24,21.77,27.47"/><circle class="cls-11" cx="882.12" cy="1021.1" r="8.7"/><path class="cls-11" d="M846.6,1041c5.51-6.68,11.07-8.72,15.45-6.24,19.36,11,22.38,24,21.76,27.46"/><path class="cls-11" d="M881,980.48c-2.92,8.16-1.82,14,2.55,16.46,19.36,11,32.06,7,34.73,4.64"/><line class="cls-11" x1="864.89" y1="1051.43" x2="877.82" y2="1028.67"/><line class="cls-11" x1="886.42" y1="1013.54" x2="899.3" y2="990.86"/><path class="cls-12" d="M2591.35,1478.14c1.74-2.89,12.08-10.28,32.89-6,6.1,1.27,8.82,9.26,6.08,22.46s-8.42,19.46-14.52,18.19c-20.8-4.31-27.35-15.21-27.8-18.55"/><circle class="cls-12" cx="2610" cy="1490.42" r="8.3"/><path class="cls-12" d="M2636.43,1462c-3,7.68-7.5,11.17-12.19,10.19-20.81-4.31-27.35-15.21-27.81-18.55"/><path class="cls-12" d="M2623,1527c.26-8.26-2.43-13.23-7.13-14.2-20.81-4.32-31.15,3.08-32.89,6"/><line class="cls-12" x1="2616.76" y1="1457.83" x2="2611.68" y2="1482.29"/><line class="cls-12" x1="2608.31" y1="1498.55" x2="2603.26" y2="1522.91"/><path class="cls-12" d="M2604.75,1413.53c1.75-2.89,12.08-10.28,32.89-6,6.1,1.27,8.83,9.26,6.09,22.47s-8.42,19.45-14.52,18.18c-20.81-4.31-27.35-15.21-27.81-18.55"/><circle class="cls-12" cx="2623.4" cy="1425.81" r="8.3"/><path class="cls-12" d="M2649.83,1397.37c-3,7.69-7.49,11.17-12.19,10.19-20.81-4.31-27.35-15.21-27.8-18.55"/><path class="cls-12" d="M2636.35,1462.35c.26-8.26-2.43-13.23-7.13-14.2-20.81-4.32-31.14,3.08-32.89,6"/><line class="cls-12" x1="2630.16" y1="1393.22" x2="2625.09" y2="1417.68"/><line class="cls-12" x1="2621.71" y1="1433.94" x2="2616.66" y2="1458.3"/><rect class="cls-13" x="2147.45" y="564.91" width="12.99" height="43.29" transform="translate(-11.06 42.24) rotate(-1.12)"/><line class="cls-13" x1="2177.4" y1="568.78" x2="2160.09" y2="569.12"/><line class="cls-13" x1="2177.57" y1="577.43" x2="2160.26" y2="577.77"/><line class="cls-13" x1="2177.74" y1="586.09" x2="2160.43" y2="586.43"/><line class="cls-13" x1="2177.91" y1="594.75" x2="2160.6" y2="595.08"/><line class="cls-13" x1="2178.08" y1="603.4" x2="2160.77" y2="603.74"/><path class="cls-13" d="M2187,614.05l13-.25a8.66,8.66,0,0,1-8.82-8.49l-.77-38.95a8.66,8.66,0,0,0-8.82-8.49l-13,.26a8.65,8.65,0,0,1,8.82,8.48l.76,39A8.66,8.66,0,0,0,2187,614.05Z"/><line class="cls-13" x1="2157.84" y1="564.83" x2="2157.55" y2="549.68"/><line class="cls-13" x1="2149.19" y1="565" x2="2148.89" y2="549.85"/><rect class="cls-14" x="2279.36" y="833.08" width="42.64" height="12.79" transform="matrix(0.19, -0.98, 0.98, 0.19, 1044.56, 2941.86)"/><line class="cls-14" x1="2326.92" y1="827.13" x2="2310.17" y2="823.93"/><line class="cls-14" x1="2325.32" y1="835.5" x2="2308.57" y2="832.3"/><line class="cls-14" x1="2323.72" y1="843.88" x2="2306.97" y2="840.68"/><line class="cls-14" x1="2322.12" y1="852.25" x2="2305.37" y2="849.06"/><line class="cls-14" x1="2320.52" y1="860.63" x2="2303.77" y2="857.43"/><path class="cls-14" d="M2326.9,872.7l12.56,2.4a8.52,8.52,0,0,1-6.77-10l7.19-37.7a8.53,8.53,0,0,0-6.77-10l-12.57-2.4a8.54,8.54,0,0,1,6.78,10l-7.2,37.7A8.53,8.53,0,0,0,2326.9,872.7Z"/><line class="cls-14" x1="2308.87" y1="819.34" x2="2311.67" y2="804.68"/><line class="cls-14" x1="2300.49" y1="817.74" x2="2303.29" y2="803.08"/><rect class="cls-15" x="1879.26" y="975.39" width="42.66" height="12.8" transform="translate(534.93 2628.34) rotate(-77.65)"/><line class="cls-15" x1="1874.02" y1="993.44" x2="1890.69" y2="997.09"/><line class="cls-15" x1="1875.85" y1="985.1" x2="1892.51" y2="988.75"/><line class="cls-15" x1="1877.67" y1="976.77" x2="1894.34" y2="980.42"/><line class="cls-15" x1="1879.5" y1="968.43" x2="1896.16" y2="972.08"/><line class="cls-15" x1="1881.32" y1="960.1" x2="1897.99" y2="963.75"/><path class="cls-15" d="M1875.27,947.86l-12.5-2.74a8.54,8.54,0,0,1,6.51,10.16l-8.22,37.5a8.54,8.54,0,0,0,6.51,10.16l12.5,2.74a8.53,8.53,0,0,1-6.5-10.16l8.21-37.5A8.53,8.53,0,0,0,1875.27,947.86Z"/><line class="cls-15" x1="1891.86" y1="1001.71" x2="1888.67" y2="1016.29"/><line class="cls-15" x1="1900.19" y1="1003.53" x2="1897" y2="1018.12"/><line class="cls-16" x1="2044.05" y1="811.42" x2="2051.31" y2="815.4"/><path class="cls-16" d="M2026.89,810.28a8.66,8.66,0,0,0,5.71.62l3.88-1.13a3.11,3.11,0,0,0,2.11-3.85l-1.13-3.88a8.68,8.68,0,0,0-3.6-4.47l-14.47-7.93a3.12,3.12,0,0,0-4.22,1.23l-4,7.26a3.12,3.12,0,0,0,1.23,4.22Z"/><path class="cls-16" d="M2041.82,783a8.71,8.71,0,0,0,5.71.63l3.88-1.13a3.11,3.11,0,0,0,2.11-3.85l-1.14-3.89a8.71,8.71,0,0,0-3.59-4.47l-14.48-7.93a3.11,3.11,0,0,0-4.21,1.23l-4,7.26a3.11,3.11,0,0,0,1.23,4.22Z"/><path class="cls-16" d="M2089.34,802l-1.82-17.26a5,5,0,0,0-7.41-4.06l-13.87,7.48-7.27-4"/><circle class="cls-16" cx="2063.11" cy="821.86" r="13.46" transform="translate(350.87 2236.12) rotate(-61.28)"/><path class="cls-16" d="M2058.57,819.38a5.17,5.17,0,0,0,2.06,7"/><line class="cls-17" x1="2457.3" y1="1170.64" x2="2465.65" y2="1170.9"/><path class="cls-17" d="M2441.37,1177.45a8.71,8.71,0,0,0,5.41-2l3-2.79a3.14,3.14,0,0,0,.14-4.42l-2.8-3a8.66,8.66,0,0,0-5.27-2.38l-16.63-.52a3.14,3.14,0,0,0-3.23,3l-.26,8.34a3.14,3.14,0,0,0,3,3.23Z"/><path class="cls-17" d="M2442.35,1146.16a8.77,8.77,0,0,0,5.41-2l3-2.79a3.15,3.15,0,0,0,.14-4.43l-2.8-3a8.7,8.7,0,0,0-5.27-2.37l-16.63-.53a3.15,3.15,0,0,0-3.23,3l-.26,8.35a3.15,3.15,0,0,0,3,3.23Z"/><path class="cls-17" d="M2493.72,1141.51l-9.53-14.68a5,5,0,0,0-8.5-.27l-9.06,13-8.34-.26"/><circle class="cls-17" cx="2479.21" cy="1171.33" r="13.57" transform="translate(1230.68 3612.57) rotate(-88.2)"/><path class="cls-17" d="M2474,1171.17a5.23,5.23,0,0,0,5.06,5.38"/><line class="cls-18" x1="1052.52" y1="798.95" x2="1048.18" y2="791.35"/><path class="cls-18" d="M1067.33,809.47a9.17,9.17,0,0,0-4.79-3.72l-4.12-1.13a3.28,3.28,0,0,0-4,2.29l-1.13,4.13a9.15,9.15,0,0,0,.77,6l8.64,15.14a3.29,3.29,0,0,0,4.47,1.23l7.6-4.34a3.29,3.29,0,0,0,1.23-4.47Z"/><path class="cls-18" d="M1038.82,825.73A9.13,9.13,0,0,0,1034,822l-4.12-1.13a3.28,3.28,0,0,0-4,2.29l-1.12,4.13a9.05,9.05,0,0,0,.76,6l8.64,15.15a3.29,3.29,0,0,0,4.47,1.23l7.61-4.34a3.28,3.28,0,0,0,1.22-4.47Z"/><path class="cls-18" d="M1006.53,782.36l-7.91,16.55a5.3,5.3,0,0,0,4.42,7.75l16.63,1,4.34,7.6"/><circle class="cls-18" cx="1041.13" cy="779" r="14.22" transform="translate(-249.19 618.15) rotate(-29.7)"/><path class="cls-18" d="M1043.84,783.75a5.47,5.47,0,0,0,2.05-7.46"/><line class="cls-19" x1="105.19" y1="484.98" x2="107.01" y2="476.52"/><line class="cls-19" x1="110.18" y1="492.7" x2="112" y2="484.23"/><line class="cls-19" x1="115.16" y1="500.41" x2="116.98" y2="491.95"/><line class="cls-19" x1="120.15" y1="508.13" x2="121.97" y2="499.66"/><line class="cls-19" x1="126.04" y1="511.61" x2="102.04" y2="474.46"/><path class="cls-19" d="M89.68,447.19a3.27,3.27,0,0,1,4.49,1l9.12,14.12a9,9,0,0,1,1.08,5.9l-.91,4.24a3.25,3.25,0,0,1-3.86,2.49L95.36,474a9,9,0,0,1-4.93-3.41L81.3,456.47a3.26,3.26,0,0,1,1-4.49Z"/><path class="cls-19" d="M89.68,447.19a3.27,3.27,0,0,1,4.49,1l9.12,14.12a9,9,0,0,1,1.08,5.9l-.91,4.24a3.25,3.25,0,0,1-3.86,2.49L95.36,474a9,9,0,0,1-4.93-3.41L81.3,456.47a3.26,3.26,0,0,1,1-4.49Z"/><line class="cls-20" x1="456.86" y1="1178.07" x2="463.77" y2="1172.79"/><line class="cls-20" x1="455.63" y1="1187.21" x2="462.54" y2="1181.94"/><line class="cls-20" x1="454.4" y1="1196.35" x2="461.32" y2="1191.08"/><line class="cls-20" x1="453.17" y1="1205.49" x2="460.09" y2="1200.22"/><line class="cls-20" x1="455.41" y1="1211.99" x2="461.32" y2="1167.99"/><path class="cls-20" d="M469.67,1139.11a3.27,3.27,0,0,1,2.8,3.66l-2.25,16.73a9.06,9.06,0,0,1-3,5.21l-3.46,2.64a3.27,3.27,0,0,1-4.57-.61l-2.64-3.46a9.07,9.07,0,0,1-1.54-5.83l2.24-16.73a3.27,3.27,0,0,1,3.67-2.79Z"/><path class="cls-20" d="M469.67,1139.11a3.27,3.27,0,0,1,2.8,3.66l-2.25,16.73a9.06,9.06,0,0,1-3,5.21l-3.46,2.64a3.27,3.27,0,0,1-4.57-.61l-2.64-3.46a9.07,9.07,0,0,1-1.54-5.83l2.24-16.73a3.27,3.27,0,0,1,3.67-2.79Z"/><line class="cls-21" x1="341.54" y1="1688.83" x2="349.75" y2="1690.99"/><line class="cls-21" x1="333.75" y1="1693.37" x2="341.97" y2="1695.53"/><line class="cls-21" x1="325.96" y1="1697.91" x2="334.18" y2="1700.08"/><line class="cls-21" x1="318.18" y1="1702.46" x2="326.4" y2="1704.62"/><line class="cls-21" x1="314.51" y1="1708.08" x2="351.99" y2="1686.21"/><path class="cls-21" d="M379.27,1675.31a3.2,3.2,0,0,1-1.14,4.36L363.88,1688a8.88,8.88,0,0,1-5.84.79l-4.11-1.08a3.19,3.19,0,0,1-2.27-3.89l1.08-4.12a8.89,8.89,0,0,1,3.56-4.68l14.25-8.32a3.2,3.2,0,0,1,4.36,1.15Z"/><path class="cls-21" d="M379.27,1675.31a3.2,3.2,0,0,1-1.14,4.36L363.88,1688a8.88,8.88,0,0,1-5.84.79l-4.11-1.08a3.19,3.19,0,0,1-2.27-3.89l1.08-4.12a8.89,8.89,0,0,1,3.56-4.68l14.25-8.32a3.2,3.2,0,0,1,4.36,1.15Z"/><path class="cls-22" d="M425.89,125.64a45.55,45.55,0,0,0,5.75-9c7.6-15.23,4.82-26.87-1.88-30.21C406.92,75.08,391.28,80.22,389.4,84c-2.18,4.35,6.13,8.76,3.77,13.5s-10.88.75-13.05,5.11c-1.81,3.62,3,18.18,23.69,29.41"/><path class="cls-22" d="M426.58,105.83a9.36,9.36,0,0,0-4.19-12.55"/><path class="cls-22" d="M408.23,140.55a14,14,0,0,0-6.29-18.82,14,14,0,0,0,18.82-6.3,14,14,0,0,0,6.3,18.83A14,14,0,0,0,408.23,140.55Z"/><path class="cls-23" d="M1928,1277.92a46,46,0,0,0-10.53,1.59c-16.48,4.34-23.4,14.13-21.49,21.37,6.51,24.71,20.71,33.08,24.8,32,4.71-1.24,2.53-10.4,7.66-11.76s7.76,7.69,12.47,6.45c3.92-1,11.68-14.28,6.48-37.26"/><path class="cls-23" d="M1912.64,1290.48a9.37,9.37,0,0,0-6.67,11.45"/><path class="cls-23" d="M1950.89,1281.35a14.06,14.06,0,0,0-10,17.17,14,14,0,0,0-17.17-10,14.05,14.05,0,0,0,10-17.17A14,14,0,0,0,1950.89,1281.35Z"/><path class="cls-24" d="M1655.67,1447.91a46.53,46.53,0,0,0,8.48-6.63c12.34-12,13.58-24,8.3-29.47-18-18.5-34.64-18.82-37.7-15.85-3.52,3.43,2.93,10.41-.91,14.15s-10.64-2.92-14.16.51c-2.94,2.86-3.19,18.36,12.78,36"/><path class="cls-24" d="M1663,1429.24a9.46,9.46,0,0,0,.19-13.38"/><path class="cls-24" d="M1633.83,1456.24a14.19,14.19,0,0,0,.28-20.07,14.2,14.2,0,0,0,20.07.29,14.18,14.18,0,0,0-.28,20.06A14.21,14.21,0,0,0,1633.83,1456.24Z"/><path class="cls-25" d="M2164.24,1045.58c1.3,3.25,1,16.46-15.62,31-4.87,4.27-13.2,1.53-22.44-9s-10.88-19.15-6-23.42c16.59-14.56,29.72-13.17,32.78-11.46"/><circle class="cls-25" cx="2142.39" cy="1053.38" r="8.63"/><path class="cls-25" d="M2149.45,1093.09c-4.47-7.33-4.58-13.2-.83-16.49,16.59-14.56,29.72-13.18,32.78-11.47"/><path class="cls-25" d="M2104,1041.27c6.69,5.39,12.5,6.25,16.24,3,16.59-14.56,16.92-27.76,15.62-31"/><line class="cls-25" x1="2165.19" y1="1079.36" x2="2148.08" y2="1059.86"/><line class="cls-25" x1="2136.7" y1="1046.89" x2="2119.65" y2="1027.47"/><path class="cls-25" d="M2209.46,1097.1c1.3,3.26,1,16.46-15.62,31-4.87,4.27-13.2,1.53-22.44-9s-10.88-19.14-6-23.42c16.59-14.56,29.72-13.17,32.78-11.46"/><circle class="cls-25" cx="2187.61" cy="1104.9" r="8.63"/><path class="cls-25" d="M2194.67,1144.61c-4.47-7.33-4.58-13.2-.83-16.49,16.59-14.56,29.72-13.18,32.78-11.46"/><path class="cls-25" d="M2149.19,1092.79c6.69,5.39,12.5,6.25,16.24,3,16.59-14.57,16.92-27.77,15.62-31"/><line class="cls-25" x1="2210.41" y1="1130.88" x2="2193.3" y2="1111.38"/><line class="cls-25" x1="2181.92" y1="1098.41" x2="2164.87" y2="1078.99"/><path class="cls-26" d="M1078.74,1437c-2.13-2.07-6.45-12.41,1.36-29.43,2.3-5,9.7-5.75,20.5-.79s15.05,11.06,12.76,16c-7.82,17-18.47,20.49-21.43,20.22"/><circle class="cls-26" cx="1092.97" cy="1423.43" r="7.32"/><path class="cls-26" d="M1073.76,1395.12c6,4.13,8.11,8.64,6.34,12.48-7.81,17-18.46,20.49-21.42,20.22"/><path class="cls-26" d="M1126.91,1419.51c-7.05-1.85-11.84-.51-13.61,3.33-7.81,17-3.5,27.36-1.36,29.43"/><line class="cls-26" x1="1066.31" y1="1411.2" x2="1086.32" y2="1420.38"/><line class="cls-26" x1="1099.62" y1="1426.48" x2="1119.54" y2="1435.63"/><path class="cls-26" d="M1025.89,1412.77c-2.13-2.07-6.44-12.41,1.37-29.43,2.29-5,9.69-5.75,20.49-.79s15,11.07,12.76,16.06c-7.81,17-18.47,20.48-21.42,20.22"/><circle class="cls-26" cx="1040.12" cy="1399.17" r="7.32"/><path class="cls-26" d="M1020.91,1370.86c6,4.13,8.11,8.64,6.35,12.48-7.81,17-18.47,20.49-21.43,20.22"/><path class="cls-26" d="M1074.06,1395.26c-7-1.86-11.84-.52-13.61,3.32-7.81,17-3.49,27.36-1.36,29.43"/><line class="cls-26" x1="1013.47" y1="1386.94" x2="1033.47" y2="1396.12"/><line class="cls-26" x1="1046.77" y1="1402.23" x2="1066.69" y2="1411.37"/><path class="cls-27" d="M2539.44,836.75c1.3,3.11,1.16,15.83-14.62,30.09-4.63,4.18-12.69,1.65-21.74-8.36s-10.73-18.3-6.11-22.48c15.79-14.25,28.46-13.1,31.42-11.49"/><circle class="cls-27" cx="2518.5" cy="844.55" r="8.31"/><path class="cls-27" d="M2525.84,882.71c-4.4-7-4.58-12.66-1-15.87,15.78-14.26,28.45-13.1,31.42-11.49"/><path class="cls-27" d="M2481.33,833.42c6.52,5.09,12.12,5.85,15.69,2.63,15.78-14.25,15.92-27,14.62-30.09"/><line class="cls-27" x1="2540.82" y1="869.27" x2="2524.07" y2="850.72"/><line class="cls-27" x1="2512.93" y1="838.39" x2="2496.24" y2="819.91"/><path class="cls-27" d="M2583.7,885.76c1.3,3.11,1.16,15.83-14.62,30.09-4.63,4.18-12.69,1.65-21.74-8.36s-10.74-18.3-6.11-22.48c15.78-14.25,28.45-13.1,31.42-11.49"/><circle class="cls-27" cx="2562.76" cy="893.56" r="8.31"/><path class="cls-27" d="M2570.1,931.72c-4.4-7-4.59-12.66-1-15.87,15.78-14.26,28.45-13.1,31.42-11.49"/><path class="cls-27" d="M2525.59,882.43c6.52,5.09,12.12,5.85,15.69,2.63,15.78-14.25,15.92-27,14.62-30.09"/><line class="cls-27" x1="2585.08" y1="918.28" x2="2568.33" y2="899.73"/><line class="cls-27" x1="2557.19" y1="887.4" x2="2540.5" y2="868.92"/><path class="cls-28" d="M90.91,1653.36a9.9,9.9,0,0,0,10.63,9l39.3-3.21a9.89,9.89,0,0,0,9-10.63l-3.69-45.19a9.89,9.89,0,0,0-10.63-9l-39.29,3.21a9.89,9.89,0,0,0-9,10.63Z"/><line class="cls-28" x1="120.61" y1="1605.41" x2="134.36" y2="1604.29"/><line class="cls-28" x1="98.99" y1="1607.18" x2="112.75" y2="1606.05"/><path class="cls-28" d="M112,1616c-2.21.18-7.8,6.83-6.7,20.22.32,3.93,5.47,7.58,14.4,6.85s13.43-5.16,13.11-9.09c-1.1-13.4-7.68-19-9.89-18.87-2.56.21-2.28,5.16-5.06,5.38S114.59,1615.81,112,1616Z"/><path class="cls-28" d="M134.88,1658.9l-.37-4.58a4.6,4.6,0,0,0-5-4.21l-18.34,1.5a4.59,4.59,0,0,0-4.21,5l.37,4.58"/><path class="cls-28" d="M112.42,1662.43a8.87,8.87,0,0,0,17.69-1.44"/><path class="cls-29" d="M1686.25,1192.86a11,11,0,0,0,14.44,5.58l40-17.73a11,11,0,0,0,5.58-14.44l-20.38-46.06a11,11,0,0,0-14.45-5.58l-40,17.73a11,11,0,0,0-5.58,14.44Z"/><line class="cls-29" x1="1699.87" y1="1131.71" x2="1713.89" y2="1125.51"/><line class="cls-29" x1="1677.85" y1="1141.46" x2="1691.86" y2="1135.26"/><path class="cls-29" d="M1694.76,1146c-2.26,1-5.68,10,.36,23.66,1.77,4,8.51,5.94,17.61,1.91s12.2-10.32,10.43-14.32c-6.05-13.66-15-17.18-17.27-16.18-2.61,1.15-.5,6.24-3.34,7.49S1697.36,1144.81,1694.76,1146Z"/><path class="cls-29" d="M1734.4,1182.61l-2.07-4.67a5.11,5.11,0,0,0-6.74-2.61l-18.69,8.28a5.11,5.11,0,0,0-2.61,6.74l2.07,4.67"/><path class="cls-29" d="M1712.13,1194.52a9.85,9.85,0,0,0,18-8"/><path class="cls-30" d="M984.75,565.38a9.46,9.46,0,0,0,13.33.8l28.29-25a9.48,9.48,0,0,0,.81-13.34l-28.82-32.53a9.48,9.48,0,0,0-13.34-.81l-28.28,25.06a9.48,9.48,0,0,0-.81,13.34Z"/><line class="cls-30" x1="979.94" y1="511.54" x2="989.84" y2="502.77"/><line class="cls-30" x1="964.39" y1="525.32" x2="974.29" y2="516.55"/><path class="cls-30" d="M979.47,524.59c-1.59,1.42-2.05,9.72,6.49,19.36,2.51,2.83,8.55,2.66,15-3s7.33-11.67,4.82-14.5c-8.54-9.64-16.84-10.19-18.43-8.78-1.84,1.63,1.22,5.26-.78,7S981.31,523,979.47,524.59Z"/><path class="cls-30" d="M1021.65,544.35l-2.92-3.3a4.41,4.41,0,0,0-6.23-.38l-13.2,11.69a4.41,4.41,0,0,0-.37,6.23l2.92,3.3"/><path class="cls-30" d="M1006.46,560a8.5,8.5,0,0,0,12.73-11.28"/><rect class="cls-31" x="1914.47" y="1605.39" width="12.88" height="42.94" transform="translate(-291.95 426.94) rotate(-11.79)"/><line class="cls-31" x1="1940.52" y1="1605.22" x2="1923.71" y2="1608.73"/><line class="cls-31" x1="1942.28" y1="1613.62" x2="1925.46" y2="1617.14"/><line class="cls-31" x1="1944.03" y1="1622.03" x2="1927.22" y2="1625.54"/><line class="cls-31" x1="1945.79" y1="1630.44" x2="1928.97" y2="1633.95"/><line class="cls-31" x1="1947.54" y1="1638.84" x2="1930.73" y2="1642.35"/><path class="cls-31" d="M1958.14,1647.6l12.61-2.64a8.58,8.58,0,0,1-10.16-6.65l-7.9-37.83a8.59,8.59,0,0,0-10.16-6.65l-12.61,2.64a8.58,8.58,0,0,1,10.16,6.65L1948,1641A8.59,8.59,0,0,0,1958.14,1647.6Z"/><line class="cls-31" x1="1920.73" y1="1604.96" x2="1917.66" y2="1590.25"/><line class="cls-31" x1="1912.32" y1="1606.72" x2="1909.25" y2="1592.01"/><rect class="cls-32" x="1417.46" y="1165.28" width="11.69" height="38.98" transform="translate(-297.7 500.93) rotate(-18.1)"/><line class="cls-32" x1="1438.84" y1="1163.29" x2="1424.02" y2="1168.14"/><line class="cls-32" x1="1441.26" y1="1170.7" x2="1426.44" y2="1175.55"/><line class="cls-32" x1="1443.69" y1="1178.11" x2="1428.87" y2="1182.96"/><line class="cls-32" x1="1446.11" y1="1185.52" x2="1431.29" y2="1190.37"/><line class="cls-32" x1="1448.53" y1="1192.93" x2="1433.71" y2="1197.78"/><path class="cls-32" d="M1459,1199.77l11.12-3.63a7.8,7.8,0,0,1-9.84-5l-10.9-33.35a7.79,7.79,0,0,0-9.83-5l-11.12,3.63a7.8,7.8,0,0,1,9.84,5l10.9,33.35A7.79,7.79,0,0,0,1459,1199.77Z"/><line class="cls-32" x1="1420.96" y1="1165.04" x2="1416.72" y2="1152.07"/><line class="cls-32" x1="1413.55" y1="1167.46" x2="1409.31" y2="1154.49"/><rect class="cls-33" x="673.66" y="1387.97" width="39.81" height="11.94" transform="translate(-834.99 1689.97) rotate(-74.51)"/><line class="cls-33" x1="668.21" y1="1403.44" x2="683.56" y2="1407.7"/><line class="cls-33" x1="670.34" y1="1395.77" x2="685.69" y2="1400.02"/><line class="cls-33" x1="672.47" y1="1388.1" x2="687.82" y2="1392.35"/><line class="cls-33" x1="674.6" y1="1380.42" x2="689.94" y2="1384.68"/><line class="cls-33" x1="676.72" y1="1372.75" x2="692.07" y2="1377"/><path class="cls-33" d="M671.71,1361l-11.51-3.19a8,8,0,0,1,5.54,9.8l-9.57,34.53a8,8,0,0,0,5.55,9.8l11.51,3.19a8,8,0,0,1-5.55-9.8l9.57-34.53A8,8,0,0,0,671.71,1361Z"/><line class="cls-33" x1="684.42" y1="1412.07" x2="680.69" y2="1425.49"/><line class="cls-33" x1="692.09" y1="1414.19" x2="688.37" y2="1427.62"/><path class="cls-34" d="M2724.29,1027.07l11.6,22.08a12.47,12.47,0,1,1-11.6-22.08Z"/><line class="cls-34" x1="2772.13" y1="1042.62" x2="2765.95" y2="1062.47"/><line class="cls-34" x1="2755.28" y1="1054.8" x2="2767.19" y2="1058.5"/><line class="cls-34" x1="2758.99" y1="1042.89" x2="2770.89" y2="1046.59"/><polygon class="cls-34" points="2750.63 1012.21 2743.27 1016.07 2743.23 1016.06 2752.9 1034.46 2743.63 1064.23 2753.3 1082.64 2760.66 1078.77 2752.6 1063.42 2761.89 1033.57 2750.69 1012.17 2750.63 1012.21"/><line class="cls-34" x1="2717.07" y1="1064.68" x2="2749.1" y2="1074.64"/><line class="cls-34" x1="2709.15" y1="1049.13" x2="2719.13" y2="1044.08"/><path class="cls-34" d="M2709.14,1049.15a12.48,12.48,0,0,0,8.21,15.61"/><path class="cls-35" d="M1689.55,456.28l15.69-15.78a11.13,11.13,0,0,1-15.69,15.78Z"/><line class="cls-35" x1="1689.99" y1="411.4" x2="1708.54" y2="411.35"/><line class="cls-35" x1="1704.86" y1="422.49" x2="1704.83" y2="411.36"/><line class="cls-35" x1="1693.73" y1="422.52" x2="1693.7" y2="411.39"/><polygon class="cls-35" points="1669.85 437.83 1675.11 443.07 1675.11 443.1 1688.19 429.95 1716.01 429.88 1729.09 416.72 1723.83 411.49 1712.92 422.46 1685.02 422.54 1669.81 437.79 1669.85 437.83"/><line class="cls-35" x1="1723.49" y1="452.36" x2="1723.41" y2="422.43"/><line class="cls-35" x1="1712.38" y1="463.27" x2="1705.41" y2="456.12"/><path class="cls-35" d="M1712.39,463.27a11.13,11.13,0,0,0,11.1-11.16"/><path class="cls-36" d="M1659.21,104.11l12.89,19a11.5,11.5,0,1,1-12.89-19Z"/><line class="cls-36" x1="1704.64" y1="113.46" x2="1701.02" y2="132.28"/><line class="cls-36" x1="1690.45" y1="126.34" x2="1701.74" y2="128.52"/><line class="cls-36" x1="1692.62" y1="115.05" x2="1703.92" y2="117.22"/><polygon class="cls-36" points="1681.82 87.79 1675.47 92.09 1675.43 92.08 1686.18 107.95 1680.75 136.19 1691.49 152.06 1697.84 147.76 1688.88 134.52 1694.32 106.21 1681.87 87.76 1681.82 87.79"/><line class="cls-36" x1="1656.45" y1="139.32" x2="1686.83" y2="145.17"/><line class="cls-36" x1="1647.59" y1="125.89" x2="1656.22" y2="120.24"/><path class="cls-36" d="M1647.59,125.9a11.5,11.5,0,0,0,9.12,13.47"/><circle class="cls-37" cx="449.22" cy="888.3" r="7"/><path class="cls-37" d="M435.74,899.85a13.65,13.65,0,0,0,18.69,4.62l6.66-4a13.67,13.67,0,0,0,4.62-18.7l-5.85-9.69c-3.87-6.41-11.63-11.64-17.46-12a16.67,16.67,0,0,0-15,9c-2.41,5.31-1.4,14.61,2.47,21Z"/><line class="cls-37" x1="434.24" y1="897.35" x2="443.23" y2="891.92"/><line class="cls-37" x1="455.21" y1="884.69" x2="464.2" y2="879.26"/><line class="cls-37" x1="440.63" y1="851.48" x2="446.23" y2="860.76"/><line class="cls-37" x1="446.27" y1="841.27" x2="440.63" y2="851.48"/><line class="cls-37" x1="420.67" y1="863.54" x2="426.27" y2="872.81"/><line class="cls-37" x1="409" y1="863.77" x2="420.67" y2="863.54"/><path class="cls-37" d="M409,863.74c2.28-7.38,7.44-13.55,14.57-17.85s15-6,22.59-4.58"/><polyline class="cls-37" points="454.49 865.81 457.26 864.14 463.89 871.49 460.69 873.43"/><polyline class="cls-37" points="426.86 882.49 424.09 884.17 427.5 893.45 430.71 891.52"/><circle class="cls-38" cx="1011.25" cy="144.65" r="6.96"/><path class="cls-38" d="M1014.15,127.26a13.56,13.56,0,0,0-17.18,8.4L994.46,143a13.57,13.57,0,0,0,8.41,17.18l10.65,3.65c7,2.41,16.28,1.44,20.93-2a16.59,16.59,0,0,0,5.64-16.45c-1.55-5.59-8.26-12-15.29-14.44Z"/><line class="cls-38" x1="1016.89" y1="128.19" x2="1013.51" y2="138.07"/><line class="cls-38" x1="1009" y1="151.23" x2="1005.61" y2="161.1"/><line class="cls-38" x1="1041.29" y1="167.21" x2="1031.1" y2="163.72"/><line class="cls-38" x1="1043.51" y1="178.58" x2="1041.29" y2="167.21"/><line class="cls-38" x1="1048.8" y1="145.29" x2="1038.61" y2="141.8"/><line class="cls-38" x1="1057.54" y1="137.67" x2="1048.8" y2="145.29"/><path class="cls-38" d="M1057.52,137.71c3,7.08,3,15.06.3,22.9s-7.59,14.13-14.28,17.9"/><polyline class="cls-38" points="1021.59 165.14 1020.55 168.18 1010.81 166.81 1012.01 163.29"/><polyline class="cls-38" points="1031.99 134.8 1033.03 131.76 1024.5 126.87 1023.29 130.39"/><circle class="cls-39" cx="1464.82" cy="638.29" r="7.54"/><path class="cls-39" d="M1452.86,623.37a14.72,14.72,0,0,0-5.63,20l4.09,7.31a14.72,14.72,0,0,0,20,5.63l10.65-6c7-3.94,12.93-12.11,13.51-18.37a18,18,0,0,0-9.22-16.46c-5.64-2.78-15.68-2-22.72,1.92Z"/><line class="cls-39" x1="1455.6" y1="621.84" x2="1461.13" y2="631.71"/><line class="cls-39" x1="1468.5" y1="644.87" x2="1474.03" y2="654.74"/><line class="cls-39" x1="1504.77" y1="630.34" x2="1494.58" y2="636.04"/><line class="cls-39" x1="1515.57" y1="636.77" x2="1504.77" y2="630.34"/><line class="cls-39" x1="1492.49" y1="608.42" x2="1482.31" y2="614.12"/><line class="cls-39" x1="1492.65" y1="595.85" x2="1492.49" y2="608.42"/><path class="cls-39" d="M1492.68,595.89c7.87,2.72,14.33,8.48,18.71,16.32s5.93,16.35,4.14,24.48"/><polyline class="cls-39" points="1488.85 644.76 1490.56 647.8 1482.41 654.68 1480.43 651.16"/><polyline class="cls-39" points="1471.86 614.42 1470.15 611.37 1460.04 614.73 1462 618.25"/><rect class="cls-40" x="784.65" y="380.03" width="33.09" height="20.68" transform="translate(-45.19 111.19) rotate(-7.72)"/><polyline class="cls-40" points="818.42 394.29 826.61 393.18 824.95 380.88 816.75 382"/><line class="cls-40" x1="842.17" y1="384.81" x2="825.78" y2="387.03"/><line class="cls-40" x1="784.8" y1="392.59" x2="772.5" y2="394.26"/><line class="cls-40" x1="773.89" y1="404.5" x2="771.11" y2="384.01"/><line class="cls-40" x1="810.78" y1="399.5" x2="809.66" y2="391.3"/><line class="cls-40" x1="802.58" y1="400.61" x2="801.47" y2="392.41"/><line class="cls-40" x1="794.38" y1="401.72" x2="793.27" y2="393.53"/><rect class="cls-41" x="304.4" y="355.84" width="30.29" height="18.93" transform="matrix(0.57, -0.82, 0.82, 0.57, -162.48, 421.97)"/><polyline class="cls-41" points="306.29 374.57 302 380.82 311.37 387.25 315.65 381"/><line class="cls-41" x1="298.11" y1="396.52" x2="306.69" y2="384.03"/><line class="cls-41" x1="328.11" y1="352.82" x2="334.54" y2="343.46"/><line class="cls-41" x1="326.74" y1="338.1" x2="342.35" y2="348.81"/><line class="cls-41" x1="307.45" y1="366.19" x2="313.7" y2="370.48"/><line class="cls-41" x1="311.74" y1="359.95" x2="317.98" y2="364.23"/><line class="cls-41" x1="316.03" y1="353.71" x2="322.27" y2="357.99"/><rect class="cls-42" x="80.88" y="1300.73" width="21.64" height="34.62" transform="translate(-225.74 35.52) rotate(-9.92)"/><polyline class="cls-42" points="88.29 1336.21 89.78 1344.74 102.57 1342.5 101.08 1333.98"/><line class="cls-42" x1="99.16" y1="1360.67" x2="96.18" y2="1343.62"/><line class="cls-42" x1="88.72" y1="1300.99" x2="86.48" y2="1288.2"/><line class="cls-42" x1="75.83" y1="1290.07" x2="97.14" y2="1286.34"/><line class="cls-42" x1="82.54" y1="1328.43" x2="91.06" y2="1326.94"/><line class="cls-42" x1="81.05" y1="1319.91" x2="89.57" y2="1318.42"/><line class="cls-42" x1="79.55" y1="1311.38" x2="88.08" y2="1309.89"/><line class="cls-43" x1="1600.97" y1="915.53" x2="1595.61" y2="909.44"/><line class="cls-43" x1="1583" y1="904.34" x2="1578.43" y2="908.36"/><path class="cls-43" d="M1596.15,900.86a6.08,6.08,0,0,1-9.13,8l-10.73-12.17,9.13-8Z"/><polygon class="cls-43" points="1575.75 905.32 1581.12 911.4 1581.12 911.41 1576.19 921.15 1554.89 939.93 1544.17 927.76 1565.46 908.98 1575.75 905.32 1575.75 905.32"/><line class="cls-44" x1="753.78" y1="137.74" x2="756.11" y2="129.44"/><line class="cls-44" x1="753.37" y1="115.22" x2="747.14" y2="113.48"/><path class="cls-44" d="M764.09,125a6.47,6.47,0,1,1-12.46-3.49l4.66-16.62,12.46,3.49Z"/><polygon class="cls-44" points="748.31 109.32 745.98 117.63 745.97 117.64 734.43 118.88 705.35 110.72 710 94.11 739.09 102.26 748.3 109.32 748.31 109.32"/><line class="cls-45" x1="881.54" y1="1269.5" x2="882.85" y2="1262.13"/><line class="cls-45" x1="879.28" y1="1250.11" x2="873.76" y2="1249.13"/><path class="cls-45" d="M889.35,1257.59a5.61,5.61,0,0,1-11.05-2l2.62-14.73,11,2Z"/><polygon class="cls-45" points="874.41 1245.44 873.11 1252.81 873.1 1252.81 863.25 1254.86 837.47 1250.28 840.09 1235.55 865.86 1240.13 874.41 1245.44 874.41 1245.44"/><circle class="cls-46" cx="871.71" cy="1632.14" r="7.28"/><line class="cls-46" x1="873.36" y1="1630.17" x2="870.07" y2="1634.12"/><path class="cls-46" d="M865.48,1635.89c-7,9-3.65,28.2-3.65,28.2a1.82,1.82,0,0,0,3.62-.33s0-19.72,5.09-24.44"/><polyline class="cls-46" points="867.74 1626.05 865.47 1623.71 864.15 1609.09 862.33 1609.25 860.33 1627.73 864.74 1630.09"/><path class="cls-46" d="M878.52,1634.71c8.54,7.57,8.67,27.08,8.67,27.08a1.82,1.82,0,0,1-3.63.33s-3.58-19.39-9.4-23.12"/><polyline class="cls-46" points="874.53 1625.43 876.34 1622.72 875.02 1608.1 876.83 1607.94 882.12 1625.75 878.21 1628.87"/><circle class="cls-47" cx="2062.94" cy="104.26" r="8.18"/><line class="cls-47" x1="2060.34" y1="105.52" x2="2065.55" y2="103"/><path class="cls-47" d="M2071.07,103.31c11.36-5.94,16.79-27.19,16.79-27.19a2,2,0,0,0-3.86-1.34s-9.17,20.18-16.53,22.67"/><polyline class="cls-47" points="2064.19 112.34 2065.43 115.79 2060.02 131.38 2061.95 132.05 2072.56 114.06 2069.14 109.6"/><path class="cls-47" d="M2057.16,98.48c-5.25-11.7,3.66-31.75,3.66-31.75a2,2,0,1,1,3.86,1.35s-5.31,21.52-1.07,28"/><polyline class="cls-47" points="2056.95 109.83 2053.84 111.77 2048.43 127.36 2046.5 126.69 2049.32 105.99 2054.77 104.61"/><circle class="cls-48" cx="2186.63" cy="1665.78" r="8.25"/><line class="cls-48" x1="2183.81" y1="1666.54" x2="2189.44" y2="1665.02"/><path class="cls-48" d="M2194.86,1666.36c12.38-3.76,21.75-23.82,21.75-23.82a2.06,2.06,0,0,0-3.58-2s-12.87,18.29-20.64,19.39"/><polyline class="cls-48" points="2186.35 1674.03 2186.93 1677.68 2178.65 1692.13 2180.43 1693.15 2194.33 1677.3 2191.77 1672.24"/><path class="cls-48" d="M2182,1659c-3-12.58,9.58-30.79,9.58-30.79a2.06,2.06,0,1,1,3.58,2s-9.29,20.35-6.32,27.6"/><polyline class="cls-48" points="2179.64 1670.18 2176.19 1671.52 2167.91 1685.96 2166.12 1684.94 2172.8 1664.94 2178.45 1664.6"/><path class="cls-49" d="M2416.79,103.63a10.83,10.83,0,0,0,1.07-15.23h0a10.82,10.82,0,0,0-15.23-1.08L2370,115.63a10.82,10.82,0,0,0-1.07,15.23h0a10.82,10.82,0,0,0,15.23,1.08Z"/><line class="cls-49" x1="2400.48" y1="117.78" x2="2386.33" y2="101.48"/><circle class="cls-49" cx="2415.88" cy="128.53" r="10.8"/><line class="cls-49" x1="2426.65" y1="129.29" x2="2405.11" y2="127.77"/><circle class="cls-49" cx="2373.08" cy="90.88" r="8.64"/><line class="cls-49" x1="2379.6" y1="85.22" x2="2366.56" y2="96.54"/><path class="cls-50" d="M1699.7,1659.53a9.52,9.52,0,0,0-10-8.92h0a9.52,9.52,0,0,0-8.92,10l2.25,37.92a9.53,9.53,0,0,0,10,8.92h0a9.53,9.53,0,0,0,8.92-10Z"/><line class="cls-50" x1="1700.82" y1="1678.48" x2="1681.86" y2="1679.61"/><circle class="cls-50" cx="1716.58" cy="1673.51" r="9.5"/><line class="cls-50" x1="1722.88" y1="1666.41" x2="1710.27" y2="1680.61"/><circle class="cls-50" cx="1667.37" cy="1683.16" r="7.6"/><line class="cls-50" x1="1666.92" y1="1675.58" x2="1667.82" y2="1690.74"/><path class="cls-51" d="M2709.53,133.48A9.76,9.76,0,0,0,2703.9,146h0a9.75,9.75,0,0,0,12.55,5.62l36.33-13.84a9.75,9.75,0,0,0,5.63-12.54h0a9.76,9.76,0,0,0-12.55-5.63Z"/><line class="cls-51" x1="2727.7" y1="126.56" x2="2734.62" y2="144.73"/><circle class="cls-51" cx="2718.01" cy="112.71" r="9.72"/><line class="cls-51" x1="2709.14" y1="108.73" x2="2726.88" y2="116.68"/><circle class="cls-51" cx="2742.53" cy="157.79" r="7.78"/><line class="cls-51" x1="2735.27" y1="160.56" x2="2749.8" y2="155.03"/><polygon class="cls-52" points="158.1 159.77 120.75 125.78 98.21 157.11 142.33 181.7 158.1 159.77"/><line class="cls-52" x1="139.25" y1="162.85" x2="120.45" y2="149.33"/><line class="cls-52" x1="126.44" y1="153.64" x2="118.83" y2="154.89"/><line class="cls-52" x1="126.44" y1="153.64" x2="125.2" y2="146.02"/><line class="cls-52" x1="133.25" y1="158.54" x2="134.49" y2="166.15"/><line class="cls-52" x1="133.25" y1="158.54" x2="140.87" y2="157.29"/><line class="cls-52" x1="132.29" y1="152.69" x2="131.05" y2="145.07"/><line class="cls-52" x1="132.29" y1="152.69" x2="139.91" y2="151.44"/><line class="cls-52" x1="127.4" y1="159.49" x2="119.78" y2="160.73"/><line class="cls-52" x1="127.4" y1="159.49" x2="128.64" y2="167.11"/><line class="cls-52" x1="136.61" y1="146.69" x2="123.09" y2="165.49"/><polygon class="cls-53" points="1913.09 530 1958.97 556.05 1974.72 518.94 1924.11 504.03 1913.09 530"/><line class="cls-53" x1="1931.59" y1="522.53" x2="1953.86" y2="531.98"/><line class="cls-53" x1="1946.75" y1="528.96" x2="1954.23" y2="525.94"/><line class="cls-53" x1="1946.75" y1="528.96" x2="1949.78" y2="536.44"/><line class="cls-53" x1="1938.7" y1="525.54" x2="1935.67" y2="518.07"/><line class="cls-53" x1="1938.7" y1="525.54" x2="1931.22" y2="528.56"/><line class="cls-53" x1="1941.01" y1="531.28" x2="1944.04" y2="538.76"/><line class="cls-53" x1="1941.01" y1="531.28" x2="1933.54" y2="534.3"/><line class="cls-53" x1="1944.44" y1="523.22" x2="1951.91" y2="520.2"/><line class="cls-53" x1="1944.44" y1="523.22" x2="1941.41" y2="515.75"/><line class="cls-53" x1="1938" y1="538.39" x2="1947.45" y2="516.12"/><polygon class="cls-54" points="332.6 637.53 280.89 623.83 275.02 664.27 328.48 665.85 332.6 637.53"/><line class="cls-54" x1="316.38" y1="649.63" x2="292.11" y2="646.11"/><line class="cls-54" x1="299.86" y1="647.23" x2="293.3" y2="652.12"/><line class="cls-54" x1="299.86" y1="647.23" x2="294.97" y2="640.68"/><line class="cls-54" x1="308.64" y1="648.51" x2="313.53" y2="655.06"/><line class="cls-54" x1="308.64" y1="648.51" x2="315.19" y2="643.62"/><line class="cls-54" x1="304.89" y1="643.48" x2="300" y2="636.93"/><line class="cls-54" x1="304.89" y1="643.48" x2="311.44" y2="638.59"/><line class="cls-54" x1="303.61" y1="652.26" x2="297.06" y2="657.15"/><line class="cls-54" x1="303.61" y1="652.26" x2="308.5" y2="658.81"/><line class="cls-54" x1="306.01" y1="635.74" x2="302.48" y2="660"/><line class="cls-55" x1="2208.2" y1="319.99" x2="2200.51" y2="316.21"/><line class="cls-55" x1="2216.8" y1="317.05" x2="2209.11" y2="313.28"/><line class="cls-55" x1="2225.4" y1="314.11" x2="2217.71" y2="310.34"/><line class="cls-55" x1="2234" y1="311.17" x2="2226.31" y2="307.4"/><line class="cls-55" x1="2238.75" y1="306.34" x2="2197.35" y2="320.49"/><path class="cls-55" d="M2168.21,325.84a3.22,3.22,0,0,1,2-4.08l15.74-5.38a9,9,0,0,1,5.92.37l3.86,1.89a3.24,3.24,0,0,1,1.47,4.3l-1.89,3.86a9,9,0,0,1-4.46,3.92l-15.74,5.38a3.23,3.23,0,0,1-4.08-2Z"/><path class="cls-55" d="M2168.21,325.84a3.22,3.22,0,0,1,2-4.08l15.74-5.38a9,9,0,0,1,5.92.37l3.86,1.89a3.24,3.24,0,0,1,1.47,4.3l-1.89,3.86a9,9,0,0,1-4.46,3.92l-15.74,5.38a3.23,3.23,0,0,1-4.08-2Z"/><line class="cls-56" x1="1206.42" y1="377.65" x2="1213.72" y2="376.24"/><line class="cls-56" x1="1201.99" y1="384.18" x2="1209.3" y2="382.77"/><line class="cls-56" x1="1197.57" y1="390.72" x2="1204.88" y2="389.31"/><line class="cls-56" x1="1193.14" y1="397.26" x2="1200.45" y2="395.85"/><line class="cls-56" x1="1192.38" y1="403.09" x2="1213.68" y2="371.62"/><path class="cls-56" d="M1231.08,352.67a2.8,2.8,0,0,1,.75,3.88l-8.1,12a7.78,7.78,0,0,1-4.3,2.84l-3.66.7a2.8,2.8,0,0,1-3.27-2.21l-.7-3.66a7.7,7.7,0,0,1,1-5.05l8.1-12a2.79,2.79,0,0,1,3.87-.75Z"/><path class="cls-56" d="M1231.08,352.67a2.8,2.8,0,0,1,.75,3.88l-8.1,12a7.78,7.78,0,0,1-4.3,2.84l-3.66.7a2.8,2.8,0,0,1-3.27-2.21l-.7-3.66a7.7,7.7,0,0,1,1-5.05l8.1-12a2.79,2.79,0,0,1,3.87-.75Z"/><line class="cls-57" x1="2766.85" y1="1304.25" x2="2758.92" y2="1304.83"/><line class="cls-57" x1="2772.37" y1="1297.87" x2="2764.44" y2="1298.45"/><line class="cls-57" x1="2777.89" y1="1291.48" x2="2769.95" y2="1292.06"/><line class="cls-57" x1="2783.4" y1="1285.1" x2="2775.47" y2="1285.68"/><line class="cls-57" x1="2784.95" y1="1279.01" x2="2758.39" y2="1309.74"/><path class="cls-57" d="M2737.55,1327.67a3,3,0,0,1-.31-4.21l10.09-11.68a8.3,8.3,0,0,1,4.93-2.47l4-.29a3,3,0,0,1,3.19,2.75l.29,4A8.31,8.31,0,0,1,2758,1321l-10.1,11.68a3,3,0,0,1-4.2.31Z"/><path class="cls-57" d="M2737.55,1327.67a3,3,0,0,1-.31-4.21l10.09-11.68a8.3,8.3,0,0,1,4.93-2.47l4-.29a3,3,0,0,1,3.19,2.75l.29,4A8.31,8.31,0,0,1,2758,1321l-10.1,11.68a3,3,0,0,1-4.2.31Z"/><path class="cls-58" d="M1893.35,236.42a53.13,53.13,0,0,0-9.84,7.33c-14.37,13.36-16.09,27.06-10.21,33.38,20,21.55,39,22.34,42.56,19,4.11-3.82-3.08-11.94,1.4-16.1s12,3.6,16.16-.22c3.42-3.18,4.1-20.85-13.65-41.35"/><path class="cls-58" d="M1884.57,257.51a10.8,10.8,0,0,0-.56,15.25"/><path class="cls-58" d="M1918.45,227.48a16.16,16.16,0,0,0-.83,22.86,16.19,16.19,0,0,0-22.87-.83,16.18,16.18,0,0,0,.83-22.87A16.18,16.18,0,0,0,1918.45,227.48Z"/><path class="cls-59" d="M2589.63,575.37a48.81,48.81,0,0,0-8.13,7.79c-11.58,13.78-11.6,26.43-5.54,31.52,20.65,17.36,38,16,40.88,12.54,3.31-3.94-4.15-10.52-.54-14.81s11.37,1.91,14.68-2c2.76-3.28,1.39-19.44-17.07-36.11"/><path class="cls-59" d="M2584,595.56a9.9,9.9,0,0,0,1.21,13.94"/><path class="cls-59" d="M2611.47,564.41a14.85,14.85,0,0,0,1.81,20.91,14.85,14.85,0,0,0-20.91,1.81,14.82,14.82,0,0,0-1.81-20.9A14.84,14.84,0,0,0,2611.47,564.41Z"/><path class="cls-60" d="M2404.13,563.16a46.91,46.91,0,0,0,6.94-8.34c9.6-14.46,8.24-26.59,1.88-30.81-21.67-14.38-38.14-11.14-40.52-7.56-2.74,4.13,5.11,9.63,2.12,14.13s-11.1-.6-13.84,3.53c-2.29,3.44.78,18.77,20.28,32.73"/><path class="cls-60" d="M2407.31,543.21a9.53,9.53,0,0,0-2.67-13.22"/><path class="cls-60" d="M2384.4,576a14.31,14.31,0,0,0-4-19.83,14.31,14.31,0,0,0,19.83-4,14.31,14.31,0,0,0,4,19.83A14.31,14.31,0,0,0,2384.4,576Z"/><circle class="cls-61" cx="2372.03" cy="1441.71" r="7.82"/><path class="cls-61" d="M2353.1,1435.83a15.25,15.25,0,0,0,6.74,20.41l7.76,3.91a15.25,15.25,0,0,0,20.42-6.74l5.69-11.29c3.76-7.47,4.09-17.91.95-23.62a18.64,18.64,0,0,0-17.46-8.79c-6.46.87-14.65,7.36-18.41,14.82Z"/><line class="cls-61" x1="2354.57" y1="1432.92" x2="2365.04" y2="1438.19"/><line class="cls-61" x1="2379.01" y1="1445.23" x2="2389.48" y2="1450.5"/><line class="cls-61" x1="2401.73" y1="1411.72" x2="2396.29" y2="1422.52"/><line class="cls-61" x1="2414.74" y1="1410.97" x2="2401.73" y2="1411.72"/><line class="cls-61" x1="2378.48" y1="1400" x2="2373.04" y2="1410.81"/><line class="cls-61" x1="2371.33" y1="1389.11" x2="2378.48" y2="1400"/><path class="cls-61" d="M2371.37,1389.13c8.34-2.23,17.23-1,25.54,3.17s14.58,10.61,17.75,18.63"/><polyline class="cls-61" points="2396.42 1433.33 2399.65 1434.96 2396.64 1445.59 2392.9 1443.71"/><polyline class="cls-61" points="2364.24 1417.12 2361 1415.49 2354.26 1424.24 2357.99 1426.13"/><circle class="cls-62" cx="1352.13" cy="127.97" r="7.23"/><path class="cls-62" d="M1344.59,144.66a14.1,14.1,0,0,0,19.5-3.86l4.46-6.68a14.1,14.1,0,0,0-3.86-19.5l-9.72-6.5c-6.43-4.3-16-5.79-21.56-3.55a17.22,17.22,0,0,0-10.05,15c.07,6,5.08,14.27,11.51,18.57Z"/><line class="cls-62" x1="1342.09" y1="142.99" x2="1348.11" y2="133.98"/><line class="cls-62" x1="1356.15" y1="121.96" x2="1362.18" y2="112.95"/><line class="cls-62" x1="1327.99" y1="97.3" x2="1337.28" y2="103.52"/><line class="cls-62" x1="1328.78" y1="85.28" x2="1327.99" y2="97.3"/><line class="cls-62" x1="1314.6" y1="117.31" x2="1323.89" y2="123.53"/><line class="cls-62" x1="1303.79" y1="122.63" x2="1314.6" y2="117.31"/><path class="cls-62" d="M1303.81,122.6c-1.09-7.9,1-15.93,5.81-23.08s11.39-12.17,19.11-14.17"/><polyline class="cls-62" points="1347.21 104.63 1349.07 101.85 1358.49 105.82 1356.34 109.04"/><polyline class="cls-62" points="1328.68 132.32 1326.83 135.1 1334.09 142.29 1336.24 139.08"/><circle class="cls-63" cx="2753.75" cy="1640.94" r="7.56"/><path class="cls-63" d="M2772.17,1635.71a14.74,14.74,0,0,0-16.24-13l-8.34.94a14.74,14.74,0,0,0-13,16.24l1.37,12.15c.9,8,6.14,16.65,11.7,19.62a18,18,0,0,0,18.77-2.11c4.77-4.12,8-13.69,7.08-21.72Z"/><line class="cls-63" x1="2772.52" y1="1638.84" x2="2761.26" y2="1640.1"/><line class="cls-63" x1="2746.24" y1="1641.78" x2="2734.97" y2="1643.05"/><line class="cls-63" x1="2745.54" y1="1680.92" x2="2744.24" y2="1669.29"/><line class="cls-63" x1="2735.41" y1="1688.39" x2="2745.54" y2="1680.92"/><line class="cls-63" x1="2770.56" y1="1678.11" x2="2769.25" y2="1666.49"/><line class="cls-63" x1="2782.1" y1="1683.16" x2="2770.56" y2="1678.11"/><path class="cls-63" d="M2782.05,1683.16c-5.57,6.21-13.41,9.93-22.35,10.93s-17.4-.89-24.21-5.71"/><polyline class="cls-63" points="2738.43 1660.61 2734.95 1661 2731.78 1650.81 2735.79 1650.35"/><polyline class="cls-63" points="2773.05 1656.73 2776.52 1656.35 2777.36 1645.7 2773.34 1646.14"/><path class="cls-64" d="M2454.08,1700.64l18.72-14.43a11.82,11.82,0,0,1-18.72,14.43Z"/><line class="cls-64" x1="2460.8" y1="1653.46" x2="2480.33" y2="1655.98"/><line class="cls-64" x1="2474.9" y1="1667.19" x2="2476.42" y2="1655.48"/><line class="cls-64" x1="2463.19" y1="1665.68" x2="2464.7" y2="1653.96"/><polygon class="cls-64" points="2435.91 1678.48 2440.72 1684.72 2440.72 1684.76 2456.32 1672.73 2485.61 1676.53 2501.21 1664.5 2496.4 1658.26 2483.39 1668.29 2454.01 1664.49 2435.88 1678.43 2435.91 1678.48"/><line class="cls-64" x1="2490.36" y1="1701.24" x2="2494.44" y2="1669.72"/><line class="cls-64" x1="2477.15" y1="1711.18" x2="2470.8" y2="1702.68"/><path class="cls-64" d="M2477.16,1711.18a11.82,11.82,0,0,0,13.23-10.21"/><path class="cls-65" d="M247.66,1355.47l25.9-.21a13,13,0,1,1-25.9.21Z"/><line class="cls-65" x1="284.77" y1="1318.71" x2="300.15" y2="1333.85"/><line class="cls-65" x1="287.99" y1="1340.05" x2="297.07" y2="1330.82"/><line class="cls-65" x1="278.76" y1="1330.97" x2="287.84" y2="1321.74"/><polygon class="cls-65" points="246.47 1324.09 246.54 1332.72 246.51 1332.76 268.09 1332.58 291.17 1355.29 312.75 1355.12 312.68 1346.48 294.68 1346.63 271.54 1323.86 246.47 1324.03 246.47 1324.09"/><line class="cls-65" x1="278.95" y1="1380.02" x2="303.38" y2="1355.19"/><line class="cls-65" x1="260.83" y1="1379.95" x2="260.92" y2="1368.33"/><path class="cls-65" d="M260.84,1380a13,13,0,0,0,18.31-.14"/><path class="cls-66" d="M1141.4,1699.59l4.37-22.85a11.63,11.63,0,1,1-4.37,22.85Z"/><line class="cls-66" x1="1115.55" y1="1660.45" x2="1131.59" y2="1649.56"/><line class="cls-66" x1="1134.91" y1="1661.36" x2="1128.38" y2="1651.73"/><line class="cls-66" x1="1125.29" y1="1667.89" x2="1118.76" y2="1658.27"/><polygon class="cls-66" points="1113.55 1695.13 1121.17 1696.58 1121.19 1696.62 1124.83 1677.58 1148.89 1661.24 1152.54 1642.2 1144.92 1640.74 1141.88 1656.63 1117.76 1673.01 1113.49 1695.12 1113.55 1695.13"/><line class="cls-66" x1="1168.53" y1="1676.35" x2="1150.95" y2="1650.47"/><line class="cls-66" x1="1165.28" y1="1692.3" x2="1155.06" y2="1690.18"/><path class="cls-66" d="M1165.29,1692.29a11.64,11.64,0,0,0,3.09-16.16"/><rect class="cls-67" x="1461.63" y="325.49" width="34.21" height="21.38" transform="translate(68.21 893.03) rotate(-34.35)"/><polyline class="cls-67" points="1461 340.54 1453.94 345.37 1461.18 355.96 1468.24 351.13"/><line class="cls-67" x1="1443.43" y1="360.31" x2="1457.56" y2="350.66"/><line class="cls-67" x1="1492.86" y1="326.53" x2="1503.46" y2="319.29"/><line class="cls-67" x1="1497.42" y1="310.46" x2="1509.49" y2="328.12"/><line class="cls-67" x1="1465.65" y1="332.18" x2="1470.47" y2="339.24"/><line class="cls-67" x1="1472.71" y1="327.36" x2="1477.53" y2="334.42"/><line class="cls-67" x1="1479.77" y1="322.53" x2="1484.6" y2="329.59"/><rect class="cls-68" x="1226" y="636.73" width="20.97" height="33.55" transform="translate(128.61 1507.08) rotate(-65.47)"/><polyline class="cls-68" points="1249.14 666.2 1256.77 669.68 1261.99 658.23 1254.36 654.75"/><line class="cls-68" x1="1274.64" y1="670.92" x2="1259.38" y2="663.96"/><line class="cls-68" x1="1221.23" y1="646.55" x2="1209.78" y2="641.32"/><line class="cls-68" x1="1205.43" y1="650.86" x2="1214.13" y2="631.78"/><line class="cls-68" x1="1239.77" y1="666.53" x2="1243.25" y2="658.9"/><line class="cls-68" x1="1232.14" y1="663.05" x2="1235.62" y2="655.42"/><line class="cls-68" x1="1224.5" y1="659.56" x2="1227.99" y2="651.93"/><rect class="cls-69" x="2755.12" y="416.42" width="32.03" height="20.02" transform="translate(1298.05 2812.02) rotate(-67.05)"/><polyline class="cls-69" points="2759.36 438.83 2756.24 446.21 2767.3 450.89 2770.42 443.51"/><line class="cls-69" x1="2755.53" y1="463.29" x2="2761.77" y2="448.55"/><line class="cls-69" x1="2777.38" y1="411.68" x2="2782.06" y2="400.62"/><line class="cls-69" x1="2772.84" y1="396.72" x2="2791.28" y2="404.52"/><line class="cls-69" x1="2758.8" y1="429.9" x2="2766.17" y2="433.02"/><line class="cls-69" x1="2761.92" y1="422.52" x2="2769.29" y2="425.65"/><line class="cls-69" x1="2765.04" y1="415.15" x2="2772.41" y2="418.27"/><line class="cls-70" x1="1407.09" y1="1646.33" x2="1404.8" y2="1653.6"/><line class="cls-70" x1="1406.81" y1="1666.21" x2="1412.26" y2="1667.92"/><path class="cls-70" d="M1397.64,1657.33a5.71,5.71,0,1,1,10.89,3.43l-4.58,14.52-10.89-3.43Z"/><polygon class="cls-70" points="1411.11 1671.55 1413.4 1664.29 1413.41 1664.29 1423.63 1663.52 1449.04 1671.54 1444.46 1686.06 1419.05 1678.05 1411.12 1671.56 1411.11 1671.55"/><line class="cls-71" x1="2163.55" y1="1382.52" x2="2168.56" y2="1377.14"/><line class="cls-71" x1="2172.05" y1="1365.3" x2="2168.02" y2="1361.54"/><path class="cls-71" d="M2176.36,1376.87a5.52,5.52,0,1,1-8.07-7.53l10-10.76,8.08,7.52Z"/><polygon class="cls-71" points="2170.52 1358.85 2165.51 1364.23 2165.5 1364.23 2156.27 1360.65 2137.43 1343.1 2147.47 1332.33 2166.3 1349.89 2170.52 1358.85 2170.52 1358.85"/><line class="cls-72" x1="540.06" y1="289.39" x2="542.15" y2="296.95"/><line class="cls-72" x1="550.97" y1="306.72" x2="556.64" y2="305.15"/><path class="cls-72" d="M538.05,304.19a5.89,5.89,0,0,1,11.35-3.14l4.19,15.12-11.34,3.15Z"/><polygon class="cls-72" points="557.69 308.93 555.59 301.37 555.6 301.37 564 294.97 590.46 287.63 594.66 302.75 568.19 310.09 557.69 308.93 557.69 308.93"/><circle class="cls-73" cx="2529.6" cy="322.16" r="7.86"/><line class="cls-73" x1="2529.55" y1="324.94" x2="2529.66" y2="319.38"/><path class="cls-73" d="M2532.33,314.78c-.13-12.32-16-26.24-16-26.24a2,2,0,0,0-2.84,2.72s13.3,16.66,12.22,24.05"/><polyline class="cls-73" points="2537.07 324.61 2540.57 325.05 2551.56 336.49 2552.98 335.12 2542.19 318.19 2536.88 319.18"/><path class="cls-73" d="M2522.12,324.59c-12.31-.61-25.6-17-25.6-17a2,2,0,0,1,2.84-2.72s16.12,13.93,23.55,13.14"/><polyline class="cls-73" points="2531.76 329.72 2532.07 333.23 2543.06 344.66 2541.64 346.02 2525.14 334.58 2526.34 329.31"/><circle class="cls-74" cx="1138.41" cy="1133.67" r="8.5"/><line class="cls-74" x1="1137.96" y1="1130.7" x2="1138.86" y2="1136.64"/><path class="cls-74" d="M1136.85,1142c2.38,13.12,21.81,25.07,21.81,25.07a2.12,2.12,0,1,0,2.52-3.42s-17.2-15.33-17.4-23.41"/><polyline class="cls-74" points="1130 1132.41 1126.19 1132.58 1112.39 1122.39 1111.13 1124.11 1125.72 1140.2 1131.2 1138.17"/><path class="cls-74" d="M1145.94,1129.71c13.24-1.59,30.39,13.45,30.39,13.45a2.13,2.13,0,1,1-2.53,3.42s-19.72-11.92-27.5-9.73"/><polyline class="cls-74" points="1134.73 1126 1133.77 1122.32 1119.96 1112.13 1121.23 1110.42 1140.9 1119.62 1140.59 1125.45"/><circle class="cls-75" cx="2770.76" cy="757.98" r="7.6"/><line class="cls-75" x1="2772.14" y1="755.67" x2="2769.38" y2="760.28"/><path class="cls-75" d="M2764.94,762.86c-5.8,10.41.82,29.68.82,29.68a1.9,1.9,0,1,0,3.68-.93s-3.17-20.35,1.28-26"/><polyline class="cls-75" points="2765.67 752.34 2762.94 750.29 2759.2 735.43 2757.35 735.89 2758.29 755.28 2763.22 756.99"/><path class="cls-75" d="M2778.2,759.52c10,6.41,13.35,26.52,13.35,26.52a1.9,1.9,0,1,1-3.68.93s-6.86-19.42-13.47-22.32"/><polyline class="cls-75" points="2772.57 750.6 2774 747.5 2770.25 732.64 2772.09 732.17 2780.45 749.69 2776.93 753.54"/></g></svg>