<svg id="Layer_1" data-name="Layer 1" xmlns="http://www.w3.org/2000/svg" viewBox="0 0 594.59 126.02" class="logo"><defs><style>.cls-1{fill:#fff;}</style></defs><path class="cls-1" d="M474.18,463.52a1.47,1.47,0,0,1,.28,2.42c-.85,1-1.75,1.28-2.69.71q-7.11-5.26-14.91-10.23-5.26-3.26-10.51-6.53t-10.51-6.67l-10.72-7q-5.33-3.48-10.58-7T404,422.27q-5.32-3.33-10.72-6.74-5.25-3.12-10.3-6.32t-9.86-6.89l-1,1a8.71,8.71,0,0,0-.85,1,221.51,221.51,0,0,0-18.18,22.29q-2.83,5.26-5.89,10.37c-2,3.41-4.05,6.77-6,10.08a1.73,1.73,0,0,1-1.21.85,2.08,2.08,0,0,1-1.35-.14,1.3,1.3,0,0,1-.57-2q2-4.11,4.69-8.66,1.69-3.12,3.48-6c1.18-1.94,2.44-3.86,3.76-5.75q4.54-7.95,8.73-15.84t8-15.83q6.81-12.92,13.27-25.77t13.14-25.78a2.27,2.27,0,0,1,2.41-1.13,1.14,1.14,0,0,1,.93.78,1.92,1.92,0,0,1-.08,1.35c-.19.38-.38.73-.56,1.06s-.38.64-.57.93q-6.68,12.91-13.14,25.77t-13.27,25.77c-1.05,2.18-2.06,4.31-3.06,6.39s-2.06,4.22-3.19,6.39a85.65,85.65,0,0,1,6.18-7.17q3.33-3.48,6.88-6.74,5.12-4.83,10.44-9.23t10.72-8.52q5.54-4.41,11.36-8.52t11.93-7.81q5-3.27,10.15-6.18t10.58-5.75c1.7-.95,3.41-1.82,5.11-2.63s3.5-1.58,5.4-2.34q2.42-1,4.83-1.71a28.91,28.91,0,0,1,5.11-1c1,0,1.46.62,1.28,1.85a1.83,1.83,0,0,1-2,1.7.57.57,0,0,0-.36.07c-.05.05-.16.07-.35.07h-.14a5.43,5.43,0,0,0-.71.07,4.3,4.3,0,0,1-.71.07,5.76,5.76,0,0,1-1.21.36,6.1,6.1,0,0,0-1.21.35,57.68,57.68,0,0,0-10.15,4.26q-5,2.7-10,5.26c-1.71,1-3.43,2-5.18,3s-3.44,1.94-5,3c-2,1.14-4,2.32-5.89,3.55s-3.86,2.51-5.75,3.84q-5.82,4-11.43,8.23t-11.15,8.81q-4,3.27-7.74,6.53t-7.59,6.81q3.4,2.42,6.88,4.76t7,4.62q5.25,3.25,10.58,6.53T411,422.2q5.53,3.56,10.79,7.1t10.65,7.1q10.36,7,21.09,13.35A245.48,245.48,0,0,1,474.18,463.52Z" transform="translate(-337.75 -340.93)"/><path class="cls-1" d="M454.72,395.08a1.26,1.26,0,0,1,.5,1.21,1.6,1.6,0,0,1-.64,1.2q-2.7,2.28-5.47,4.26c-1.84,1.33-3.81,2.61-5.89,3.84-1,.66-1.92,1.28-2.91,1.84s-2,1.09-3.05,1.57a22.85,22.85,0,0,1-2.91,1.2,9.39,9.39,0,0,1-3.06.5q-3.69-.29-3.69-3.83a8.55,8.55,0,0,1,.57-3.06,13.72,13.72,0,0,1,1.56-2.91,18.65,18.65,0,0,1,4.12-5.11,11.39,11.39,0,0,1,4.69-3.41c.66-.28,1.27-.52,1.84-.71a3.07,3.07,0,0,1,1.85,0,2.39,2.39,0,0,1,2.27,1.42,3,3,0,0,1-.28,3.05,10.34,10.34,0,0,1-2.28,2.49,21,21,0,0,1-2.77,1.56,8.66,8.66,0,0,1-3.05.85c-.95,0-1.56-.23-1.84-.71l-1,1.28c-.28.38-.57.81-.85,1.28a22.2,22.2,0,0,0-1.28,2.7,2.22,2.22,0,0,1-.07.57.78.78,0,0,0,.07.56V407l.14.14h.15a2.52,2.52,0,0,0,1-.14,8.35,8.35,0,0,0,2.41-.71,29.72,29.72,0,0,0,3.2-1.56c1-.57,2-1.14,3-1.71,1.89-1.23,3.76-2.5,5.61-3.83s3.67-2.7,5.47-4.12A1.71,1.71,0,0,1,454.72,395.08Zm-14.2.14a11.06,11.06,0,0,0-1.42.71c-.47.29-1,.62-1.56,1l.14.14a13.07,13.07,0,0,0,1.14-.64,13.07,13.07,0,0,1,1.14-.64,3.09,3.09,0,0,0,.71-.57Z" transform="translate(-337.75 -340.93)"/><path class="cls-1" d="M472.19,395.08a1.28,1.28,0,0,1,.5,1.21,1.63,1.63,0,0,1-.64,1.2q-2.7,2.28-5.47,4.26t-5.89,3.84c-.95.66-1.92,1.28-2.92,1.84s-2,1.09-3,1.57a22.27,22.27,0,0,1-2.91,1.2,9.33,9.33,0,0,1-3.05.5q-3.69-.29-3.69-3.83a8.76,8.76,0,0,1,.56-3.06,13.77,13.77,0,0,1,1.57-2.91,18.6,18.6,0,0,1,4.11-5.11,11.45,11.45,0,0,1,4.69-3.41c.66-.28,1.28-.52,1.85-.71a3,3,0,0,1,1.84,0,2.38,2.38,0,0,1,2.27,1.42,3,3,0,0,1-.28,3.05,10.3,10.3,0,0,1-2.27,2.49,21.64,21.64,0,0,1-2.77,1.56,8.66,8.66,0,0,1-3.05.85c-.95,0-1.57-.23-1.85-.71-.38.48-.71.9-1,1.28s-.57.81-.86,1.28a22,22,0,0,0-1.27,2.7,2.24,2.24,0,0,1-.08.57.79.79,0,0,0,.08.56V407l.14.14h.14a2.45,2.45,0,0,0,1-.14,8.41,8.41,0,0,0,2.42-.71,29.54,29.54,0,0,0,3.19-1.56c1-.57,2-1.14,3.06-1.71,1.89-1.23,3.76-2.5,5.61-3.83s3.66-2.7,5.46-4.12A1.72,1.72,0,0,1,472.19,395.08Zm-14.2.14a9.9,9.9,0,0,0-1.42.71c-.48.29-1,.62-1.56,1l.14.14a12.93,12.93,0,0,0,1.13-.64,13.07,13.07,0,0,1,1.14-.64,2.72,2.72,0,0,0,.71-.57Z" transform="translate(-337.75 -340.93)"/><path class="cls-1" d="M498.31,394.65a1.83,1.83,0,0,1,.86,2.42,22.44,22.44,0,0,1-2.21,4.54c-.9,1.42-1.77,2.8-2.62,4.12a21.88,21.88,0,0,1-2.91,3.62,9.5,9.5,0,0,1-3.77,2.34,5.84,5.84,0,0,1-4,0,10.48,10.48,0,0,1-3.48-2.13,8.71,8.71,0,0,1-1-.85l-.85-.85-.42-.43a2.31,2.31,0,0,0-.57-.42l-.29-.29a2.4,2.4,0,0,1-.71-.71,2.33,2.33,0,0,1-.71-1.7,1.76,1.76,0,0,1,.79-1.63,7.2,7.2,0,0,0,1.2-1.21,9.45,9.45,0,0,1,.64-.85,5.2,5.2,0,0,0,.64-1,6,6,0,0,0,1.14-2.69h-.15a7.7,7.7,0,0,1-.78.21q-.35.08-.78.21A9,9,0,0,0,477,398l-1.27.78a24.68,24.68,0,0,0-4.26,4.12,37.22,37.22,0,0,0-3.48,5c-1,1.7-2,3.46-2.91,5.25a1.72,1.72,0,0,1-2.42.64,2.12,2.12,0,0,1-.85-1,1.67,1.67,0,0,1,0-1.35q1.28-2.7,2.7-5.25c1-1.71,1.84-3.41,2.7-5.12a45.58,45.58,0,0,0,2.27-5,25.57,25.57,0,0,0,1.42-5.39,1.56,1.56,0,0,1,.71-1.07,1.37,1.37,0,0,1,1.28-.07,1.7,1.7,0,0,1,1.42,2.13,17.12,17.12,0,0,1-.43,2.2c-.19.71-.38,1.45-.57,2.2.57-.37,1.18-.75,1.85-1.13a13.78,13.78,0,0,1,5.39-1.71,2.92,2.92,0,0,1,2.42,1,3,3,0,0,1,.64,1.63,6.51,6.51,0,0,1-.07,1.63,9.71,9.71,0,0,1-1.14,3.34,32.21,32.21,0,0,1-2,3.05l-.57.57a14.72,14.72,0,0,0,1.14,1.28l1.14,1.14a6.18,6.18,0,0,0,1.27,1,2.71,2.71,0,0,0,.5.21,1,1,0,0,1,.36.22h.14a.28.28,0,0,1,.21.07.28.28,0,0,0,.21.07h1a5.51,5.51,0,0,0,3.05-1.64,16.23,16.23,0,0,0,2.34-2.91q1.29-2.13,2.56-4.18a23.39,23.39,0,0,0,2.13-4.48,1.18,1.18,0,0,1,1.06-.78A2.45,2.45,0,0,1,498.31,394.65Z" transform="translate(-337.75 -340.93)"/><path class="cls-1" d="M555.11,360a1.37,1.37,0,0,1-.14,1.34,1.74,1.74,0,0,1-1.14.79,107,107,0,0,1-10.65,1.7q-6.81.86-13.63,1.35t-13.63,1.06c-1.51,2.56-3,5.14-4.47,7.74s-2.91,5.23-4.33,7.88l-6.18,11.22q-3.06,5.54-5.75,11.5a81.89,81.89,0,0,0-4.26,11.79l-.57,2.56c-.19.85-.38,1.75-.57,2.69v.43a1.53,1.53,0,0,1-.14.71v1.7c.1,0,.14.07.14.22v.21a.58.58,0,0,0,.07.35.31.31,0,0,1,.07.22c0-.09,0-.09.08,0a.72.72,0,0,1,.07.28h.28c.1-.09.17-.14.21-.14s.12-.05.22-.14c.28-.09.59-.22.92-.36s.69-.3,1.06-.49a19.79,19.79,0,0,0,3.7-3.48q1.69-2.06,3.26-4.05,4.13-5.25,7.81-10.79t7.81-10.94a1.7,1.7,0,0,1,2.42-.71,2.72,2.72,0,0,1,.85,1.14,1.35,1.35,0,0,1-.29,1.42q-4,5.25-7.52,10.72a127,127,0,0,1-7.67,10.58q-1.56,2-3.12,4.05a20.3,20.3,0,0,1-3.55,3.62,20.65,20.65,0,0,1-4.19,2.62,4,4,0,0,1-4.48-.35,4.5,4.5,0,0,1-1.63-3.2,13,13,0,0,1,.07-3.62,54.68,54.68,0,0,1,1.14-5.53q.71-2.7,1.56-5.26a93.7,93.7,0,0,1,5-12q2.91-5.74,6-11.43,2.84-5.12,5.68-10.36t6-10.37q-6.26.42-12.35.92T487,368.67a1.94,1.94,0,0,1-1.84-1.85c0-1.13.61-1.7,1.84-1.7,1.61-.19,3.27-.33,5-.43s3.41-.23,5.11-.42c2.75-.19,5.54-.41,8.38-.64s5.63-.45,8.38-.64q3.12-5,6.39-9.8a110.39,110.39,0,0,1,7.1-9.37,1.26,1.26,0,0,1,1.21-.5,1.84,1.84,0,0,1,1.2.5,1.58,1.58,0,0,1,0,2.55,98.57,98.57,0,0,0-6,7.88q-2.77,4-5.47,8.31l3.55-.28,3.55-.29q7-.71,13.92-1.27a111.66,111.66,0,0,0,13.77-2,1.7,1.7,0,0,1,1.28.21A2.14,2.14,0,0,1,555.11,360Z" transform="translate(-337.75 -340.93)"/><path class="cls-1" d="M534,395.08a1.56,1.56,0,0,1,1.28-.5,1.88,1.88,0,0,1,1.14.5,2.29,2.29,0,0,1,.57,1.21,1.46,1.46,0,0,1-.43,1.35q-2.28,2.42-4.33,4.9c-1.38,1.65-2.72,3.29-4,4.89-.47.67-1,1.33-1.42,2a15.14,15.14,0,0,1-1.7,2,18.14,18.14,0,0,1-2.13,1.78,2.72,2.72,0,0,1-2.56.49,2.18,2.18,0,0,1-1.56-1.63,5.51,5.51,0,0,1,0-2.49c.09-.37.16-.68.21-.92s.12-.59.22-1.06a6,6,0,0,1,.07-1,8.94,8.94,0,0,1,.21-1,3.35,3.35,0,0,1,.14-1c-.28.29-.59.57-.92.86s-.64.56-.92.85c-.76.76-1.5,1.47-2.21,2.13s-1.44,1.32-2.2,2a23.2,23.2,0,0,1-2.41,1.84,6.06,6.06,0,0,1-2.84,1,2.48,2.48,0,0,1-2.27-.86,3,3,0,0,1-.71-2.41,9.05,9.05,0,0,1,1.06-2.77c.52-.9,1-1.77,1.49-2.63s1.16-1.7,1.78-2.55,1.25-1.71,1.92-2.56a46.38,46.38,0,0,1,4-4.26,18.45,18.45,0,0,1,2.34-2,8.9,8.9,0,0,1,2.77-1.27,1.57,1.57,0,0,1,1.35.28,2.35,2.35,0,0,1,.71,1.06,1.72,1.72,0,0,1-.07,1.28,1.37,1.37,0,0,1-1.13.78,5.56,5.56,0,0,0-1.85.93,12.82,12.82,0,0,0-1.56,1.35,16,16,0,0,0-1.64,1.56c-.52.57-1,1.13-1.49,1.7q-1.56,1.85-2.91,3.77a37.91,37.91,0,0,0-2.48,4l-.29.57,1.28-.85a45.08,45.08,0,0,0,3.48-3.27,47,47,0,0,1,3.48-3.26l1.14-1.14a8,8,0,0,1,1.56-1.21,5.24,5.24,0,0,1,1.63-.64,1.36,1.36,0,0,1,1.35.57,1.94,1.94,0,0,1,.64,1.56q-.07.85-.21,1.71c-.2,1-.34,2.06-.43,3.05s-.24,2-.43,3.05a10.54,10.54,0,0,0,1.35-1.63c.43-.61.88-1.21,1.35-1.77q2.13-2.7,4.26-5.33T534,395.08Z" transform="translate(-337.75 -340.93)"/><path class="cls-1" d="M555.82,395.08a1.42,1.42,0,0,1,.57,1.21,1.4,1.4,0,0,1-.57,1.2c-1.51,1.33-3,2.7-4.47,4.12s-3,2.8-4.47,4.12c-.86.76-1.71,1.47-2.56,2.13a27.33,27.33,0,0,1-2.7,1.85l-1,.49a4.86,4.86,0,0,1-1,.36,3.75,3.75,0,0,1-2.69-.71,2.53,2.53,0,0,1-.29-3.06,27,27,0,0,1,1.56-3.05c.57-.75,1.16-1.51,1.78-2.27a22.9,22.9,0,0,0,1.63-2.27,8.59,8.59,0,0,0,.85-1.14l-.92.64c-.33.24-.64.45-.92.64a10.07,10.07,0,0,1-1.14,1,14.2,14.2,0,0,1-1.28.86l-4.75,3.9a21.67,21.67,0,0,0-4.19,4.62,2.17,2.17,0,0,1-1.07.78,1.57,1.57,0,0,1-1.35-.22,1.3,1.3,0,0,1-.85-1,2.49,2.49,0,0,1,.14-1.42q2-3.12,3.91-6.25a68.29,68.29,0,0,0,3.48-6.39,1.32,1.32,0,0,1,1.06-.85,2.14,2.14,0,0,1,1.35.14,1.86,1.86,0,0,1,.71,2.42l-.85,1.7a8.91,8.91,0,0,0,1.28-.92,9.05,9.05,0,0,1,1.27-.93l2.06-1.42a19.42,19.42,0,0,1,2.21-1.27,3.76,3.76,0,0,1,1.42-.29,2.72,2.72,0,0,1,1.42.43,2.85,2.85,0,0,1,1.13,2.41,4.84,4.84,0,0,1-.64,2.42,21.46,21.46,0,0,1-1.35,2.13c-.56.76-1.18,1.51-1.84,2.27a17.75,17.75,0,0,0-1.71,2.27q2.13-1.56,4-3.12c1.42-1.23,2.81-2.49,4.19-3.77s2.77-2.53,4.19-3.76A1.56,1.56,0,0,1,555.82,395.08Z" transform="translate(-337.75 -340.93)"/><path class="cls-1" d="M572,395.08a1.54,1.54,0,0,1,1.28-.5,1.82,1.82,0,0,1,1.13.5,2.21,2.21,0,0,1,.57,1.21,1.46,1.46,0,0,1-.43,1.35c-1.51,1.61-3,3.24-4.33,4.9l-4,4.89-1.42,2a16.05,16.05,0,0,1-1.71,2,18.14,18.14,0,0,1-2.13,1.78,2.7,2.7,0,0,1-2.55.49,2.18,2.18,0,0,1-1.57-1.63,5.51,5.51,0,0,1,0-2.49c.1-.37.17-.68.22-.92s.11-.59.21-1.06a6,6,0,0,1,.07-1q.08-.42.21-1a3,3,0,0,1,.15-1c-.29.29-.6.57-.93.86s-.64.56-.92.85c-.76.76-1.49,1.47-2.2,2.13s-1.44,1.32-2.2,2a23.33,23.33,0,0,1-2.42,1.84,6,6,0,0,1-2.84,1,2.49,2.49,0,0,1-2.27-.86,3.07,3.07,0,0,1-.71-2.41,9.08,9.08,0,0,1,1.07-2.77c.52-.9,1-1.77,1.49-2.63s1.16-1.7,1.77-2.55,1.26-1.71,1.92-2.56a46.36,46.36,0,0,1,4-4.26,17.16,17.16,0,0,1,2.34-2,8.79,8.79,0,0,1,2.77-1.27,1.58,1.58,0,0,1,1.35.28,2.35,2.35,0,0,1,.71,1.06,1.77,1.77,0,0,1-.07,1.28,1.39,1.39,0,0,1-1.14.78,5.65,5.65,0,0,0-1.85.93,13.62,13.62,0,0,0-1.56,1.35,15.9,15.9,0,0,0-1.63,1.56c-.52.57-1,1.13-1.49,1.7q-1.56,1.85-2.91,3.77a38,38,0,0,0-2.49,4l-.28.57,1.28-.85a45.08,45.08,0,0,0,3.48-3.27,44.93,44.93,0,0,1,3.47-3.26l1.14-1.14a8,8,0,0,1,1.56-1.21,5.2,5.2,0,0,1,1.64-.64,1.35,1.35,0,0,1,1.34.57,1.91,1.91,0,0,1,.64,1.56q-.08.85-.21,1.71c-.19,1-.33,2.06-.43,3.05s-.23,2-.42,3.05a11.82,11.82,0,0,0,1.35-1.63,21.18,21.18,0,0,1,1.35-1.77q2.13-2.7,4.26-5.33C569,398.37,570.49,396.69,572,395.08Z" transform="translate(-337.75 -340.93)"/><path class="cls-1" d="M767.68,363.56c1.14.66,1.47,1.42,1,2.27a1.15,1.15,0,0,1-.64,1.06,1.23,1.23,0,0,1-1.21.07,1.07,1.07,0,0,1-.35-.07,1.59,1.59,0,0,0-.36-.07A90.07,90.07,0,0,0,746.81,360a131.42,131.42,0,0,0-20.16-3,179.45,179.45,0,0,0-23.08.08,181.32,181.32,0,0,0-22.93,3,188.25,188.25,0,0,0-23.08,5.68,196.81,196.81,0,0,0-22.22,8.52q-5.25,2.41-10.15,5.11t-9.73,6q-2.57,1.57-4.9,3.34t-4.76,3.76a48.17,48.17,0,0,0-3.4,3.48,46.7,46.7,0,0,0-3,3.77,6.65,6.65,0,0,0-.49.85,4.72,4.72,0,0,1-.78,1l-.29.71a.44.44,0,0,0-.14.29v.28a2.32,2.32,0,0,0-.36.78,1.17,1.17,0,0,1-.35.64.57.57,0,0,1-.07.36s0,.16.07.35c-.19.19-.28.33-.28.43a4.63,4.63,0,0,0-.29,1.42,1.5,1.5,0,0,1,.14.71v.28a1.1,1.1,0,0,1,.07.71.79.79,0,0,0,.22.71c.09.19.12.33.07.43a.23.23,0,0,0,.07.28v.28a5.85,5.85,0,0,0,.71,1.28.46.46,0,0,0,.28.43l.29.28a4.8,4.8,0,0,0,1.7,2.27l.14.15.29.28a.86.86,0,0,0,.57.57,3.29,3.29,0,0,0,1.27.71q.72.57,1.35,1c.43.29.83.57,1.21.85l.28.15h.29c0,.09.09.14.28.14a2.08,2.08,0,0,0,.57.42,6,6,0,0,0,1.56.57,45.78,45.78,0,0,1,8.52-8.09,92,92,0,0,1,9.94-6.39,125.36,125.36,0,0,1,12.28-5.33q6.33-2.34,12.86-4.19,14.61-4.11,29.39-6.74a155.09,155.09,0,0,1,30.1-2.34q3.84.14,7.6.35a60.8,60.8,0,0,1,7.6.92,53.62,53.62,0,0,1,5.75,1.21,22.47,22.47,0,0,1,5.75,2.49,11,11,0,0,1,4.33,4.11,10.52,10.52,0,0,1,1.35,5.83,12.3,12.3,0,0,1-1.49,5.89,17.1,17.1,0,0,1-3.77,4.76,42.71,42.71,0,0,1-11.28,6.53,119.07,119.07,0,0,1-12.57,4.12A131,131,0,0,1,699,425.54q-7.6,1.06-15.27,1.77-8.09.72-15.83,1.07T652.1,429q-5.55.14-11.08.21a75,75,0,0,1-10.94-.64c-2.74-.38-5.49-.83-8.23-1.35s-5.4-1.16-8-1.91q-2.7-.72-5-1.57a33.27,33.27,0,0,0-7,15.48,1.21,1.21,0,0,1-.43,1.21,1.4,1.4,0,0,1-1.27.35,1.77,1.77,0,0,1-1.28-.56,1.38,1.38,0,0,1-.43-1.28,36.51,36.51,0,0,1,2.49-8.61,43,43,0,0,1,4.47-8,40.34,40.34,0,0,1-5.25-3,31.17,31.17,0,0,1-4.62-4.41,9.89,9.89,0,0,1-2.34-5.69,12,12,0,0,1,.78-7.18,22.13,22.13,0,0,1,3.76-6.05,50.69,50.69,0,0,1,8.24-8.32,177.88,177.88,0,0,1,19.31-12.52q5.11-2.62,10.51-5.05a202.11,202.11,0,0,1,45.86-13.93,230.53,230.53,0,0,1,23.08-2.85,149.3,149.3,0,0,1,23.36.14,126.24,126.24,0,0,1,20.23,3.14A91.76,91.76,0,0,1,767.68,363.56Zm-152.36,53a25.1,25.1,0,0,0-2.06,2c-.71.76-1.4,1.52-2.06,2.27h.28l3.77,1.35A29,29,0,0,0,619,423.2a1.67,1.67,0,0,1,1.14.28h.71c.37.1.68.17.92.21l1.06.22a12.9,12.9,0,0,0,2,.35c.57.05,1.23.12,2,.21,1.32.2,2.63.36,3.9.5s2.58.31,3.91.5a40.64,40.64,0,0,0,5.4.21c1.79-.05,3.64-.07,5.53-.07q4,0,8-.14l8-.29q7.95-.27,15.62-.85t15.62-1.7q7.24-.86,14.27-2.2a93.9,93.9,0,0,0,13.84-3.77,52.12,52.12,0,0,0,11.93-5.39,30.79,30.79,0,0,0,4.33-3.69,9.51,9.51,0,0,0,2.49-4.83,7.27,7.27,0,0,0-.57-5.4,9.38,9.38,0,0,0-3.62-3.41,19.64,19.64,0,0,0-5.26-1.91c-1.94-.43-3.67-.78-5.18-1.07a124,124,0,0,0-30.24-.57q-7.68.72-15.13,2t-15,3.13q-6.81,1.56-13.28,3.55t-12.85,4.4A102.54,102.54,0,0,0,626.25,409,60.87,60.87,0,0,0,615.32,416.52Z" transform="translate(-337.75 -340.93)"/><path class="cls-1" d="M775.78,395.79a1.77,1.77,0,0,1-1.14,2.27,54.93,54.93,0,0,1-6.25,2.34,17.5,17.5,0,0,1-6.81.79,8,8,0,0,1-.79,4,21.07,21.07,0,0,1-2,3.55,11.77,11.77,0,0,1-3.77,3.34,5.39,5.39,0,0,1-5,.21,5.15,5.15,0,0,1-3.41-3.69,6.47,6.47,0,0,1,0-3.27,14.67,14.67,0,0,1,1.28-3.12,23.64,23.64,0,0,1,4-4.83,21.33,21.33,0,0,1,2.41-2.06,16.58,16.58,0,0,1,2.84-1.63,1.39,1.39,0,0,1,1.35.14,2.39,2.39,0,0,1,.92,1.14,1.37,1.37,0,0,1-.42,1.7,3.48,3.48,0,0,1,.71.57,12.4,12.4,0,0,0,5.39.28,24.85,24.85,0,0,0,4.33-1.2c1.38-.52,2.77-1.07,4.19-1.64a1.52,1.52,0,0,1,1.35.07A2.13,2.13,0,0,1,775.78,395.79ZM758,401.47a1.93,1.93,0,0,0-.29-1.28l-1.7-.85-.43-.43a6,6,0,0,1-.64.57c-.23.19-.45.38-.64.57a17.22,17.22,0,0,0-3.26,3.69c-.19.38-.38.74-.57,1.07a4.12,4.12,0,0,0-.43,1.2,6.34,6.34,0,0,0-.21.93,1.35,1.35,0,0,0,.07.78.33.33,0,0,0,.07.21.28.28,0,0,1,.07.21l.14.29.15.14.14.14a.12.12,0,0,0,.14.14c.1,0,.14,0,.14.07s.05.08.14.08l.43.14h1a5.4,5.4,0,0,0,1.57-.85,7.78,7.78,0,0,0,2.84-3.13c.28-.57.54-1.13.78-1.7A8.15,8.15,0,0,0,758,401.47Z" transform="translate(-337.75 -340.93)"/><path class="cls-1" d="M801.19,359.3a2.3,2.3,0,0,1,1.64.28,2.85,2.85,0,0,1,1,1.21,5.11,5.11,0,0,1,.43,1.63A3.46,3.46,0,0,1,804,364a22.8,22.8,0,0,1-1.28,2.91c-.47.9-.94,1.78-1.42,2.63a58.17,58.17,0,0,1-3.69,5.47c-1.32,1.75-2.7,3.52-4.12,5.32q-4,4.83-8.23,9.52a72.16,72.16,0,0,1-9.23,8.52c-.38,1-.74,2.13-1.07,3.26s-.64,2.27-.92,3.41a20.39,20.39,0,0,0-.64,2.91,5.59,5.59,0,0,0,.36,2.91.81.81,0,0,0,.28.57l.28.14h.15v.14h1.27a8.51,8.51,0,0,0,2.42-1.27l2.27-1.71c.76-.75,1.54-1.49,2.34-2.2s1.59-1.44,2.35-2.2c1.6-1.61,3.19-3.22,4.75-4.83a50.88,50.88,0,0,1,5-4.54,1.78,1.78,0,0,1,3.06,1.2,1.62,1.62,0,0,1-.5,1.35,53.76,53.76,0,0,0-4.76,4.19l-4.47,4.48a37.51,37.51,0,0,1-4.4,4.26c-.76.66-1.52,1.3-2.27,1.91a17.15,17.15,0,0,1-2.42,1.64,9.08,9.08,0,0,1-2.41,1.06,5.7,5.7,0,0,1-2.7.07,4.78,4.78,0,0,1-2.2-1.13,6.79,6.79,0,0,1-1.49-2,9.48,9.48,0,0,1-.36-6c.52-2.08,1.12-4.06,1.78-6a76,76,0,0,1,5-12.21,115.44,115.44,0,0,1,6.67-11.36q1.84-2.57,3.77-5.11a43.6,43.6,0,0,1,4.18-4.83,49.86,49.86,0,0,1,4.55-4.26c.75-.57,1.56-1.16,2.41-1.78A7,7,0,0,1,801.19,359.3Zm-.71,4.11a33.64,33.64,0,0,0-4.54,3.55,43.34,43.34,0,0,0-4,4.26,63.53,63.53,0,0,0-4,5q-1.86,2.56-3.55,5.26a98.59,98.59,0,0,0-5.4,9.65q3.69-3.69,7.1-7.52,2.83-3.27,5.54-6.6t5.11-7c.66-.95,1.25-1.87,1.78-2.77s1-1.87,1.49-2.91Z" transform="translate(-337.75 -340.93)"/><path class="cls-1" d="M822.92,359.3a2.26,2.26,0,0,1,1.63.28,2.8,2.8,0,0,1,1,1.21,5.09,5.09,0,0,1,.42,1.63,3.33,3.33,0,0,1-.21,1.56,24.29,24.29,0,0,1-1.28,2.91c-.47.9-1,1.78-1.42,2.63a62.3,62.3,0,0,1-3.69,5.47q-2,2.63-4.12,5.32-4,4.83-8.24,9.52a71.49,71.49,0,0,1-9.23,8.52c-.37,1-.73,2.13-1.06,3.26s-.64,2.27-.92,3.41a19.11,19.11,0,0,0-.64,2.91,5.69,5.69,0,0,0,.35,2.91.83.83,0,0,0,.29.57l.28.14h.14v.14h1.28a8.46,8.46,0,0,0,2.41-1.27l2.28-1.71c.75-.75,1.53-1.49,2.34-2.2s1.58-1.44,2.34-2.2q2.42-2.42,4.76-4.83a50.88,50.88,0,0,1,5-4.54,1.77,1.77,0,0,1,3.05,1.2,1.61,1.61,0,0,1-.49,1.35,52.37,52.37,0,0,0-4.76,4.19L810,406.16a37.54,37.54,0,0,1-4.41,4.26c-.75.66-1.51,1.3-2.27,1.91a17.06,17.06,0,0,1-2.41,1.64,9,9,0,0,1-2.42,1.06,5.66,5.66,0,0,1-2.69.07,4.68,4.68,0,0,1-2.2-1.13,6.82,6.82,0,0,1-1.5-2,9.55,9.55,0,0,1-.35-6c.52-2.08,1.11-4.06,1.77-6a77.86,77.86,0,0,1,5-12.21,115.54,115.54,0,0,1,6.68-11.36q1.85-2.57,3.76-5.11a44.77,44.77,0,0,1,4.19-4.83,51,51,0,0,1,4.54-4.26c.76-.57,1.57-1.16,2.42-1.78A7,7,0,0,1,822.92,359.3Zm-.71,4.11a33.73,33.73,0,0,0-4.55,3.55,43.24,43.24,0,0,0-4,4.26q-2.13,2.41-4,5t-3.55,5.26a100.54,100.54,0,0,0-5.39,9.65q3.69-3.69,7.1-7.52,2.83-3.27,5.53-6.6t5.12-7c.66-.95,1.25-1.87,1.77-2.77s1-1.87,1.49-2.91Z" transform="translate(-337.75 -340.93)"/><path class="cls-1" d="M835.27,395.08a1.56,1.56,0,0,1,1.28-.5,1.88,1.88,0,0,1,1.14.5,2.21,2.21,0,0,1,.56,1.21,1.43,1.43,0,0,1-.42,1.35q-2.28,2.42-4.33,4.9c-1.38,1.65-2.73,3.29-4,4.89-.47.67-1,1.33-1.42,2a15.14,15.14,0,0,1-1.7,2,18.14,18.14,0,0,1-2.13,1.78,2.73,2.73,0,0,1-2.56.49,2.18,2.18,0,0,1-1.56-1.63,5.51,5.51,0,0,1,0-2.49c.09-.37.16-.68.21-.92s.12-.59.21-1.06a5.87,5.87,0,0,1,.08-1,8.94,8.94,0,0,1,.21-1,3.06,3.06,0,0,1,.14-1c-.28.29-.59.57-.92.86s-.64.56-.93.85c-.75.76-1.49,1.47-2.2,2.13s-1.44,1.32-2.2,2a23.2,23.2,0,0,1-2.41,1.84,6.06,6.06,0,0,1-2.84,1,2.47,2.47,0,0,1-2.27-.86,3,3,0,0,1-.71-2.41,9.05,9.05,0,0,1,1.06-2.77c.52-.9,1-1.77,1.49-2.63s1.16-1.7,1.78-2.55,1.25-1.71,1.91-2.56a46.36,46.36,0,0,1,4-4.26,18.45,18.45,0,0,1,2.34-2,8.9,8.9,0,0,1,2.77-1.27,1.57,1.57,0,0,1,1.35.28,2.35,2.35,0,0,1,.71,1.06,1.72,1.72,0,0,1-.07,1.28,1.37,1.37,0,0,1-1.14.78,5.61,5.61,0,0,0-1.84.93,12.82,12.82,0,0,0-1.56,1.35,16,16,0,0,0-1.64,1.56c-.52.57-1,1.13-1.49,1.7q-1.56,1.85-2.91,3.77a36.34,36.34,0,0,0-2.48,4l-.29.57,1.28-.85a45.08,45.08,0,0,0,3.48-3.27,47,47,0,0,1,3.48-3.26l1.13-1.14a8.32,8.32,0,0,1,1.57-1.21,5.15,5.15,0,0,1,1.63-.64,1.36,1.36,0,0,1,1.35.57A2,2,0,0,1,825,401c-.05.57-.12,1.14-.22,1.71-.19,1-.33,2.06-.42,3.05s-.24,2-.43,3.05a11.82,11.82,0,0,0,1.35-1.63c.43-.61.88-1.21,1.35-1.77q2.13-2.7,4.26-5.33T835.27,395.08Z" transform="translate(-337.75 -340.93)"/><path class="cls-1" d="M859.13,394.8a1.49,1.49,0,0,1,.92,1,1.73,1.73,0,0,1-.21,1.42q-2,2.85-4.05,5.47t-4,5.46l-.14.15-.14.14v.14c-.28.38-.71.9-1.28,1.56a25.46,25.46,0,0,1-1.84,1.92,14.33,14.33,0,0,1-2.13,1.63,2.88,2.88,0,0,1-2,.57,1.93,1.93,0,0,1-1.28-.28h-.14a2.06,2.06,0,0,1-.85-1.85v-.43a.12.12,0,0,0,.14-.14l.57-4a3.88,3.88,0,0,0,.14-1.14v-2a.53.53,0,0,1-.14-.42c-.2-.38-.38-.57-.57-.57a1.33,1.33,0,0,0-.57.14,5.68,5.68,0,0,0-1.56,1.14,12.85,12.85,0,0,0-1.49,1.13c-.43.38-.88.81-1.35,1.28l-1.42,1.42c-.48.47-1,.95-1.56,1.42s-1.09.9-1.57,1.28a5,5,0,0,1-2.69,1.42h-.43a.83.83,0,0,1-.57-.29,1.25,1.25,0,0,1-.85-.71.57.57,0,0,1-.14-.42c-.1,0-.14-.1-.14-.29v-.42a5.47,5.47,0,0,1,.49-1.92c.34-.8.74-1.68,1.21-2.63l1.7-3.4c.67-1.33,1.35-2.68,2.06-4.05s1.45-2.72,2.2-4.05q2-4.11,3.84-8.3t3.55-8.45a1.59,1.59,0,0,1,2.13-1.14,1.76,1.76,0,0,1,1.13.78,1.39,1.39,0,0,1,.15,1.35q-1.71,4.41-3.55,8.73t-4,8.45c-.85,1.61-1.75,3.25-2.7,4.9s-1.8,3.34-2.55,5l.56-.57.57-.56c1-.95,1.94-1.87,3-2.77a11.05,11.05,0,0,1,3.55-2.06,6.75,6.75,0,0,1,2.7-.29,3.15,3.15,0,0,1,1.56,1.71,4.27,4.27,0,0,1,.71,1.7c.1.57.19,1.19.29,1.85v1.84a8.87,8.87,0,0,1-.07,1.07,6.16,6.16,0,0,0-.07.92V409l.28-.29a19.86,19.86,0,0,1,1.42-1.56,10.23,10.23,0,0,0,1.28-1.56c1.32-1.71,2.6-3.38,3.83-5s2.46-3.39,3.69-5.19a2.23,2.23,0,0,1,1.07-.78A1.57,1.57,0,0,1,859.13,394.8Z" transform="translate(-337.75 -340.93)"/><path class="cls-1" d="M875.17,395.08a1.56,1.56,0,0,1,1.28-.5,1.88,1.88,0,0,1,1.14.5,2.21,2.21,0,0,1,.56,1.21,1.43,1.43,0,0,1-.42,1.35q-2.28,2.42-4.33,4.9c-1.38,1.65-2.73,3.29-4,4.89-.47.67-1,1.33-1.42,2a15.14,15.14,0,0,1-1.7,2,18.14,18.14,0,0,1-2.13,1.78,2.73,2.73,0,0,1-2.56.49,2.18,2.18,0,0,1-1.56-1.63,5.51,5.51,0,0,1,0-2.49c.09-.37.16-.68.21-.92s.12-.59.21-1.06a5.87,5.87,0,0,1,.08-1,8.94,8.94,0,0,1,.21-1,3.35,3.35,0,0,1,.14-1c-.28.29-.59.57-.92.86s-.64.56-.93.85c-.75.76-1.49,1.47-2.2,2.13s-1.44,1.32-2.2,2a23.2,23.2,0,0,1-2.41,1.84,6.06,6.06,0,0,1-2.84,1,2.47,2.47,0,0,1-2.27-.86,3,3,0,0,1-.71-2.41,9.05,9.05,0,0,1,1.06-2.77c.52-.9,1-1.77,1.49-2.63s1.16-1.7,1.78-2.55,1.25-1.71,1.91-2.56a46.36,46.36,0,0,1,4-4.26,18.45,18.45,0,0,1,2.34-2,8.9,8.9,0,0,1,2.77-1.27,1.57,1.57,0,0,1,1.35.28,2.35,2.35,0,0,1,.71,1.06,1.72,1.72,0,0,1-.07,1.28,1.37,1.37,0,0,1-1.14.78,5.61,5.61,0,0,0-1.84.93,12.82,12.82,0,0,0-1.56,1.35,16,16,0,0,0-1.64,1.56c-.52.57-1,1.13-1.49,1.7q-1.56,1.85-2.91,3.77a37.91,37.91,0,0,0-2.48,4l-.29.57,1.28-.85a45.08,45.08,0,0,0,3.48-3.27,47,47,0,0,1,3.48-3.26l1.13-1.14a8.32,8.32,0,0,1,1.57-1.21,5.15,5.15,0,0,1,1.63-.64,1.36,1.36,0,0,1,1.35.57,2,2,0,0,1,.64,1.56c0,.57-.12,1.14-.22,1.71-.19,1-.33,2.06-.42,3.05s-.24,2-.43,3.05a10.54,10.54,0,0,0,1.35-1.63c.43-.61.88-1.21,1.35-1.77q2.13-2.7,4.26-5.33T875.17,395.08Z" transform="translate(-337.75 -340.93)"/><path class="cls-1" d="M902.86,359.3a2.3,2.3,0,0,1,1.64.28,2.85,2.85,0,0,1,1,1.21,5.11,5.11,0,0,1,.43,1.63,3.46,3.46,0,0,1-.22,1.56,22.8,22.8,0,0,1-1.28,2.91c-.47.9-.94,1.78-1.42,2.63a58.17,58.17,0,0,1-3.69,5.47q-2,2.63-4.11,5.32-4,4.83-8.24,9.52a72.16,72.16,0,0,1-9.23,8.52c-.38,1-.74,2.13-1.07,3.26s-.64,2.27-.92,3.41a20.39,20.39,0,0,0-.64,2.91,5.59,5.59,0,0,0,.36,2.91.81.81,0,0,0,.28.57l.28.14h.15v.14h1.28a8.59,8.59,0,0,0,2.41-1.27l2.27-1.71c.76-.75,1.54-1.49,2.34-2.2s1.59-1.44,2.35-2.2q2.41-2.42,4.75-4.83a52.15,52.15,0,0,1,5-4.54,1.89,1.89,0,0,1,2.55,0,1.87,1.87,0,0,1,.5,1.2,1.62,1.62,0,0,1-.5,1.35,53.76,53.76,0,0,0-4.76,4.19l-4.47,4.48a36.75,36.75,0,0,1-4.4,4.26c-.76.66-1.52,1.3-2.27,1.91a16.59,16.59,0,0,1-2.42,1.64,9.08,9.08,0,0,1-2.41,1.06,5.7,5.7,0,0,1-2.7.07,4.78,4.78,0,0,1-2.2-1.13,6.79,6.79,0,0,1-1.49-2,9.48,9.48,0,0,1-.36-6c.52-2.08,1.12-4.06,1.78-6a76.91,76.91,0,0,1,5-12.21,115.44,115.44,0,0,1,6.67-11.36q1.85-2.57,3.77-5.11a43.6,43.6,0,0,1,4.18-4.83,51.2,51.2,0,0,1,4.55-4.26L900,360.5A7,7,0,0,1,902.86,359.3Zm-.71,4.11a33.64,33.64,0,0,0-4.54,3.55,43.34,43.34,0,0,0-4,4.26q-2.13,2.41-4,5c-1.23,1.71-2.42,3.46-3.55,5.26a98.59,98.59,0,0,0-5.4,9.65q3.69-3.69,7.1-7.52,2.84-3.27,5.54-6.6t5.11-7c.66-.95,1.25-1.87,1.78-2.77s1-1.87,1.49-2.91Z" transform="translate(-337.75 -340.93)"/><path class="cls-1" d="M924.59,359.3a2.26,2.26,0,0,1,1.63.28,2.8,2.8,0,0,1,1,1.21,5.09,5.09,0,0,1,.42,1.63,3.33,3.33,0,0,1-.21,1.56,24.29,24.29,0,0,1-1.28,2.91c-.47.9-.95,1.78-1.42,2.63A62.3,62.3,0,0,1,921,375q-2,2.63-4.12,5.32-4,4.83-8.24,9.52a71.49,71.49,0,0,1-9.23,8.52c-.37,1-.73,2.13-1.06,3.26s-.64,2.27-.92,3.41a19.11,19.11,0,0,0-.64,2.91,5.69,5.69,0,0,0,.35,2.91.83.83,0,0,0,.29.57l.28.14h.14v.14h1.28a8.46,8.46,0,0,0,2.41-1.27l2.28-1.71c.75-.75,1.53-1.49,2.34-2.2s1.58-1.44,2.34-2.2q2.41-2.42,4.76-4.83a50.88,50.88,0,0,1,5-4.54,1.77,1.77,0,0,1,3,1.2,1.61,1.61,0,0,1-.49,1.35,52.37,52.37,0,0,0-4.76,4.19l-4.47,4.48a37.54,37.54,0,0,1-4.41,4.26c-.75.66-1.51,1.3-2.27,1.91a17.06,17.06,0,0,1-2.41,1.64,9,9,0,0,1-2.42,1.06,5.66,5.66,0,0,1-2.69.07,4.68,4.68,0,0,1-2.2-1.13,6.82,6.82,0,0,1-1.5-2,9.55,9.55,0,0,1-.35-6c.52-2.08,1.11-4.06,1.77-6a77.86,77.86,0,0,1,5-12.21,115.54,115.54,0,0,1,6.68-11.36q1.85-2.57,3.76-5.11a44.77,44.77,0,0,1,4.19-4.83,51,51,0,0,1,4.54-4.26c.76-.57,1.57-1.16,2.42-1.78A7,7,0,0,1,924.59,359.3Zm-.71,4.11a33.73,33.73,0,0,0-4.55,3.55,43.24,43.24,0,0,0-4,4.26q-2.13,2.41-4,5t-3.55,5.26a100.54,100.54,0,0,0-5.39,9.65q3.69-3.69,7.1-7.52,2.84-3.27,5.53-6.6t5.12-7c.66-.95,1.25-1.87,1.77-2.77s1-1.87,1.49-2.91Z" transform="translate(-337.75 -340.93)"/><path class="cls-1" d="M929.28,395.08a1.53,1.53,0,0,1,1.27-.5,2.17,2.17,0,0,1,1.21.5,1.74,1.74,0,0,1,.57,1.21,1.61,1.61,0,0,1-.5,1.35c-1.33,1.42-2.6,2.89-3.83,4.4s-2.51,3-3.84,4.54a39.25,39.25,0,0,1-4,4,14.54,14.54,0,0,1-1.85,1.56,3,3,0,0,1-2.13.57,2.77,2.77,0,0,1-2.27-1.07,3.3,3.3,0,0,1-.71-2.48,9.48,9.48,0,0,1,.5-2.13c.23-.66.45-1.33.64-2,.75-1.89,1.49-3.74,2.2-5.54a55.09,55.09,0,0,1,2.48-5.39,1.31,1.31,0,0,1,1-.86,2.48,2.48,0,0,1,1.42.15,1.85,1.85,0,0,1,.57,2.55q-2,4.26-3.83,9.23a15.77,15.77,0,0,0-1.28,3.69,4.69,4.69,0,0,0,1.28-1.13,16.4,16.4,0,0,1,1.28-1.42c.56-.57,1.13-1.16,1.7-1.78s1.14-1.25,1.7-1.91q1.57-2,3.13-3.84T929.28,395.08ZM923,384.71a2.7,2.7,0,0,1-1-.71,1.48,1.48,0,0,1-.14-1.42c.19-1.23.9-1.65,2.13-1.27a.27.27,0,0,1,.21.07.29.29,0,0,0,.22.07.84.84,0,0,1,.71.42c.19.19.28.34.28.43a1.18,1.18,0,0,1,.14,1.28,1.9,1.9,0,0,1-.71,1.13,2.31,2.31,0,0,1-1,.15h-.43A.54.54,0,0,1,923,384.71Z" transform="translate(-337.75 -340.93)"/></svg>